<?xml version="1.0" encoding="utf-8"?>
<!-- Generator: Adobe Illustrator 16.2.0, SVG Export Plug-In . SVG Version: 6.00 Build 0)  -->
<!DOCTYPE svg PUBLIC "-//W3C//DTD SVG 1.1//EN" "http://www.w3.org/Graphics/SVG/1.1/DTD/svg11.dtd">
<svg version="1.1" xmlns="http://www.w3.org/2000/svg" xmlns:xlink="http://www.w3.org/1999/xlink" x="0px" y="0px" width="1055px"
	 height="767.094px" viewBox="0 0 1055 767.094" enable-background="new 0 0 1055 767.094" xml:space="preserve">
<g id="background_top">
	<rect x="96" y="160.094" fill="#A67C52" width="831" height="224"/>
	<rect x="96" y="416.094" fill="#A67C52" width="895" height="287"/>
</g>
<g id="lava">
	<rect x="608" y="575.094" fill="#FF0000" width="32" height="32"/>
	<rect x="608" y="671.094" fill="#FF0000" width="32" height="32"/>
	<rect x="608" y="607.094" fill="#FF0000" width="32" height="32"/>
	<rect x="608" y="639.094" fill="#FF0000" width="32" height="32"/>
	<rect x="576" y="575.094" fill="#FF0000" width="32" height="32"/>
	<rect x="576" y="671.094" fill="#FF0000" width="32" height="32"/>
	<rect x="576" y="607.094" fill="#FF0000" width="32" height="32"/>
	<rect x="576" y="639.094" fill="#FF0000" width="32" height="32"/>
	<rect x="512" y="575.094" fill="#FF0000" width="32" height="32"/>
	<rect x="512" y="671.094" fill="#FF0000" width="32" height="32"/>
	<rect x="512" y="607.094" fill="#FF0000" width="32" height="32"/>
	<rect x="512" y="639.094" fill="#FF0000" width="32" height="32"/>
	<rect x="480" y="575.094" fill="#FF0000" width="32" height="32"/>
	<rect x="480" y="671.094" fill="#FF0000" width="32" height="32"/>
	<rect x="480" y="607.094" fill="#FF0000" width="32" height="32"/>
	<rect x="480" y="639.094" fill="#FF0000" width="32" height="32"/>
	<rect x="448" y="575.094" fill="#FF0000" width="32" height="32"/>
	<rect x="448" y="671.094" fill="#FF0000" width="32" height="32"/>
	<rect x="448" y="607.094" fill="#FF0000" width="32" height="32"/>
	<rect x="448" y="639.094" fill="#FF0000" width="32" height="32"/>
	<rect x="416" y="575.094" fill="#FF0000" width="32" height="32"/>
	<rect x="416" y="671.094" fill="#FF0000" width="32" height="32"/>
	<rect x="416" y="607.094" fill="#FF0000" width="32" height="32"/>
	<rect x="416" y="639.094" fill="#FF0000" width="32" height="32"/>
	<polyline fill="#FF0000" points="384,575.094 352,575.094 352,607.094 384,607.094 	"/>
	<polyline fill="#FF0000" points="384,671.094 352,671.094 352,703.094 384,703.094 	"/>
	<polyline fill="#FF0000" points="384,607.094 352,607.094 352,639.094 384,639.094 	"/>
	<polyline fill="#FF0000" points="384,639.094 352,639.094 352,671.094 384,671.094 	"/>
	<polyline fill="#FF0000" points="320,607.094 352,607.094 352,575.094 320,575.094 	"/>
	<polyline fill="#FF0000" points="320,703.094 352,703.094 352,671.094 320,671.094 	"/>
	<polyline fill="#FF0000" points="320,639.094 352,639.094 352,607.094 320,607.094 	"/>
	<polyline fill="#FF0000" points="320,671.094 352,671.094 352,639.094 320,639.094 	"/>
	<path fill="#FFFF00" d="M331,572.094c0,13,10.234,0,10.234,0s10.094-14,10.094,0c0,11,10.094,8,10.094,0c0-9,5.047,0,5.047,0H336.5
		H316"/>
	<path fill="#FFFF00" d="M322,572.094"/>
	<path fill="#A67C52" d="M341.234,572.172"/>
	<line fill="#A67C52" x1="362" y1="572.094" x2="332" y2="572.094"/>
	<path fill="#C6C124" d="M319,572.094c0,0,9.141-14,9.141,0c0,15,10.094,0,10.094,0s10.094-11,10.094,0c0,13,10.094,8,10.094,0
		c0-9,4.578,0,4.578,0"/>
	<path fill="#A67C52" d="M337.234,572.172"/>
	<line fill="#A67C52" x1="361" y1="576.094" x2="331" y2="576.094"/>
	<path fill="#FFDA00" d="M317,576.094c0,0,9.141-15,9.141,0c0,13,10.094,0,10.094,0s10.094-13,10.094,0c0,11,10.094,9,10.094,0
		s4.578,0,4.578,0"/>
	<path fill="#A67C52" d="M336.234,575.524"/>
	<line fill="#A67C52" x1="357" y1="576.094" x2="327" y2="576.094"/>
	<path fill="#FCEE21" d="M313,572.094c0,0,9.141-14,9.141,0c0,15,10.094,0,10.094,0s10.094-11,10.094,0c0,13,10.094,8,10.094,0
		c0-9,4.578,0,4.578,0"/>
	<path fill="#A67C52" d="M332.234,575.524"/>
	<path fill="#FFFF00" d="M350,572.094c0,0,9.141-16,9.141,0c0,13,10.094,0,10.094,0s10.094-14,10.094,0c0,11,10.094,8,10.094,0
		c0-9,5.047,0,5.047,0H364.5H344"/>
	<path fill="#A67C52" d="M369.234,572.172"/>
	<line fill="#A67C52" x1="390" y1="572.094" x2="360" y2="572.094"/>
	<path fill="#C6C124" d="M347,572.094c0,0,9.141-14,9.141,0c0,15,10.094,0,10.094,0s10.094-11,10.094,0c0,13,10.094,8,10.094,0
		c0-9,4.578,0,4.578,0"/>
	<path fill="#A67C52" d="M365.234,572.172"/>
	<line fill="#A67C52" x1="389" y1="576.094" x2="359" y2="576.094"/>
	<path fill="#FFDA00" d="M345,576.094c0,0,9.141-15,9.141,0c0,13,10.094,0,10.094,0s10.094-13,10.094,0c0,11,10.094,9,10.094,0
		s4.578,0,4.578,0"/>
	<path fill="#A67C52" d="M364.234,575.524"/>
	<line fill="#A67C52" x1="385" y1="576.094" x2="355" y2="576.094"/>
	<path fill="#FCEE21" d="M341,572.094c0,0,9.141-14,9.141,0c0,15,10.094,0,10.094,0s10.094-11,10.094,0c0,13,10.094,8,10.094,0
		c0-9,4.578,0,4.578,0"/>
	<path fill="#A67C52" d="M360.234,575.524"/>
	<path fill="#FFFF00" d="M434,575.094c0,13,10.234,0,10.234,0s10.094-14,10.094,0c0,11,10.094,8,10.094,0c0-9,5.047,0,5.047,0H439.5
		H419"/>
	<path fill="#FFFF00" d="M425,575.094"/>
	<path fill="#A67C52" d="M444.234,575.172"/>
	<line fill="#A67C52" x1="465" y1="575.094" x2="435" y2="575.094"/>
	<path fill="#C6C124" d="M421,575.094c0,0,9.141-14,9.141,0c0,15,10.094,0,10.094,0s10.094-11,10.094,0c0,13,10.094,8,10.094,0
		c0-9,4.578,0,4.578,0"/>
	<path fill="#A67C52" d="M440.234,575.172"/>
	<line fill="#A67C52" x1="464" y1="579.094" x2="434" y2="579.094"/>
	<path fill="#FFDA00" d="M414,577.094c0,0,9.141-15,9.141,0c0,13,10.094,0,10.094,0s10.094-13,10.094,0c0,11,10.094,9,10.094,0
		s4.578,0,4.578,0"/>
	<path fill="#A67C52" d="M439.234,578.524"/>
	<line fill="#A67C52" x1="460" y1="579.094" x2="430" y2="579.094"/>
	<path fill="#FCEE21" d="M413,575.094c0,0,9.141-14,9.141,0c0,15,10.094,0,10.094,0s10.094-11,10.094,0c0,13,10.094,8,10.094,0
		c0-9,4.578,0,4.578,0"/>
	<path fill="#A67C52" d="M435.234,578.524"/>
	<path fill="#FFFF00" d="M453,575.094c0,0,9.141-16,9.141,0c0,13,10.094,0,10.094,0s10.094-14,10.094,0c0,11,10.094,8,10.094,0
		c0-9,5.047,0,5.047,0H467.5H447"/>
	<path fill="#A67C52" d="M472.234,575.172"/>
	<line fill="#A67C52" x1="493" y1="575.094" x2="463" y2="575.094"/>
	<path fill="#C6C124" d="M450,575.094c0,0,9.141-14,9.141,0c0,15,10.094,0,10.094,0s10.094-11,10.094,0c0,13,10.094,8,10.094,0
		c0-9,4.578,0,4.578,0"/>
	<path fill="#A67C52" d="M468.234,575.172"/>
	<line fill="#A67C52" x1="492" y1="579.094" x2="462" y2="579.094"/>
	<path fill="#FFDA00" d="M448,579.094c0,0,9.141-15,9.141,0c0,13,10.094,0,10.094,0s10.094-13,10.094,0c0,11,10.094,9,10.094,0
		s4.578,0,4.578,0"/>
	<path fill="#A67C52" d="M467.234,578.524"/>
	<line fill="#A67C52" x1="488" y1="579.094" x2="458" y2="579.094"/>
	<path fill="#FCEE21" d="M442,576.094c0,0,9.141-14,9.141,0c0,15,10.094,0,10.094,0s10.094-11,10.094,0c0,13,10.094,8,10.094,0
		c0-9,4.578,0,4.578,0"/>
	<path fill="#A67C52" d="M463.234,578.524"/>
	<path fill="#FFFF00" d="M484,576.094c0,13,10.234,0,10.234,0s10.094-14,10.094,0c0,11,10.094,8,10.094,0c0-9,5.047,0,5.047,0H489.5
		H469"/>
	<path fill="#FFFF00" d="M475,576.094"/>
	<path fill="#A67C52" d="M494.234,576.172"/>
	<line fill="#A67C52" x1="515" y1="576.094" x2="485" y2="576.094"/>
	<path fill="#C6C124" d="M472,576.094c0,0,9.141-14,9.141,0c0,15,10.094,0,10.094,0s10.094-11,10.094,0c0,13,10.094,8,10.094,0
		c0-9,4.578,0,4.578,0"/>
	<path fill="#A67C52" d="M490.234,576.172"/>
	<line fill="#A67C52" x1="514" y1="580.094" x2="484" y2="580.094"/>
	<path fill="#FFDA00" d="M470,580.094c0,0,9.141-15,9.141,0c0,13,10.094,0,10.094,0s10.094-13,10.094,0c0,11,10.094,9,10.094,0
		s4.578,0,4.578,0"/>
	<path fill="#A67C52" d="M489.234,579.524"/>
	<line fill="#A67C52" x1="510" y1="580.094" x2="480" y2="580.094"/>
	<path fill="#FCEE21" d="M466,576.094c0,0,9.141-14,9.141,0c0,15,10.094,0,10.094,0s10.094-11,10.094,0c0,13,10.094,8,10.094,0
		c0-9,4.578,0,4.578,0"/>
	<path fill="#A67C52" d="M485.234,579.524"/>
	<path fill="#FFFF00" d="M502,576.094c0,0,9.141-16,9.141,0c0,13,10.094,0,10.094,0s10.094-14,10.094,0c0,11,10.094,8,10.094,0
		c0-9,3.88,0,3.88,0h-29.969L496,576.153"/>
	<path fill="#A67C52" d="M522.234,576.172"/>
	<line fill="#A67C52" x1="543" y1="576.094" x2="513" y2="576.094"/>
	<path fill="#C6C124" d="M498,576.094c0,0,9.141-14,9.141,0c0,15,10.094,0,10.094,0s10.094-11,10.094,0c0,13,10.094,8,10.094,0
		c0-9,4.578,0,4.578,0"/>
	<path fill="#A67C52" d="M518.234,576.172"/>
	<line fill="#A67C52" x1="542" y1="580.094" x2="512" y2="580.094"/>
	<path fill="#FFDA00" d="M491,576.094c0,0,9.141-15,9.141,0c0,13,10.094,0,10.094,0s10.094-13,10.094,0c0,11,10.094,9,10.094,0
		s4.578,0,4.578,0"/>
	<path fill="#A67C52" d="M517.234,579.524"/>
	<line fill="#A67C52" x1="538" y1="580.094" x2="508" y2="580.094"/>
	<path fill="#FCEE21" d="M495,577.094c0,0,9.141-14,9.141,0c0,15,10.094,0,10.094,0s10.094-11,10.094,0
		c0,10.143,10.094,5.247,10.094,0c0-9,4.578,0,4.578,0"/>
	<path fill="#A67C52" d="M513.234,579.524"/>
	<path fill="#FFFF00" d="M587,575.094c0,13,10.234,0,10.234,0s10.094-14,10.094,0c0,11,10.094,8,10.094,0c0-9,5.047,0,5.047,0H592.5
		H572"/>
	<path fill="#FFFF00" d="M578,575.094"/>
	<path fill="#A67C52" d="M597.234,575.172"/>
	<line fill="#A67C52" x1="618" y1="575.094" x2="588" y2="575.094"/>
	<path fill="#C6C124" d="M575,575.094c0,0,9.141-14,9.141,0c0,15,10.094,0,10.094,0s10.094-11,10.094,0c0,13,10.094,8,10.094,0
		c0-9,4.578,0,4.578,0"/>
	<path fill="#A67C52" d="M593.234,575.172"/>
	<line fill="#A67C52" x1="617" y1="579.094" x2="587" y2="579.094"/>
	<path fill="#FFDA00" d="M573,579.094c0,0,9.141-15,9.141,0c0,13,10.094,0,10.094,0s10.094-13,10.094,0c0,11,10.094,9,10.094,0
		s4.578,0,4.578,0"/>
	<path fill="#A67C52" d="M592.234,578.524"/>
	<line fill="#A67C52" x1="613" y1="579.094" x2="583" y2="579.094"/>
	<path fill="#FCEE21" d="M569,575.094c0,0,9.141-14,9.141,0c0,15,10.094,0,10.094,0s10.094-11,10.094,0c0,13,10.094,8,10.094,0
		c0-9,4.578,0,4.578,0"/>
	<path fill="#A67C52" d="M588.234,578.524"/>
	<path fill="#FFFF00" d="M606,575.094c0,0,9.141-16,9.141,0c0,13,10.094,0,10.094,0s10.094-14,10.094,0c0,11,10.094,8,10.094,0
		c0-9,5.047,0,5.047,0H620.5H600"/>
	<path fill="#A67C52" d="M625.234,575.172"/>
	<line fill="#A67C52" x1="646" y1="575.094" x2="616" y2="575.094"/>
	<path fill="#C6C124" d="M603,575.094c0,0,9.141-14,9.141,0c0,15,10.094,0,10.094,0s10.094-11,10.094,0c0,13,10.094,8,10.094,0
		c0-9,4.578,0,4.578,0"/>
	<path fill="#A67C52" d="M621.234,575.172"/>
	<line fill="#A67C52" x1="645" y1="579.094" x2="615" y2="579.094"/>
	<path fill="#FFDA00" d="M601,579.094c0,0,9.141-15,9.141,0c0,13,10.094,0,10.094,0s10.094-13,10.094,0c0,11,10.094,9,10.094,0
		s4.578,0,4.578,0"/>
	<path fill="#A67C52" d="M620.234,578.524"/>
	<line fill="#A67C52" x1="641" y1="579.094" x2="611" y2="579.094"/>
	<path fill="#FCEE21" d="M597,575.094c0,0,9.141-14,9.141,0c0,15,10.094,0,10.094,0s10.094-11,10.094,0c0,13,10.094,8,10.094,0
		c0-9,4.578,0,4.578,0"/>
	<path fill="#A67C52" d="M616.234,578.524"/>
	<path fill="#C6C124" d="M506,576.094c0,0,9.141-14,9.141,0c0,15,10.094,0,10.094,0s10.094-11,10.094,0c0,13,10.094,8,10.094,0
		c0-9,4.578,0,4.578,0"/>
	<line fill="#A67C52" x1="550" y1="580.094" x2="520" y2="580.094"/>
</g>
<g id="Fill">
	<rect x="64" y="735.094" fill="#603813" width="991" height="32"/>
	<rect x="64" y="703.094" fill="#603813" width="991" height="32"/>
	<rect x="64" y="671.094" fill="#A67C52" width="32" height="32"/>
	<rect x="64" y="639.094" fill="#A67C52" width="32" height="32"/>
	<rect x="64" y="607.094" fill="#603813" width="32" height="32"/>
	<rect x="96" y="607.094" fill="#603813" width="32" height="32"/>
	<rect x="128" y="607.094" fill="#603813" width="32" height="32"/>
	<rect x="64" y="575.094" fill="#603813" width="32" height="32"/>
	<rect x="64" y="543.094" fill="#603813" width="32" height="32"/>
	<rect x="64" y="511.094" fill="#603813" width="32" height="32"/>
	<rect x="64" y="479.094" fill="#603813" width="32" height="32"/>
	<rect x="64" y="448.094" fill="#603813" width="32" height="32"/>
	<rect x="64" y="416.094" fill="#603813" width="32" height="32"/>
	<rect x="64" y="384.094" fill="#603813" width="32" height="32"/>
	<rect x="64" y="352.094" fill="#603813" width="32" height="32"/>
	<rect x="64" y="320.094" fill="#603813" width="32" height="32"/>
	<rect x="64" y="288.094" fill="#603813" width="32" height="32"/>
	<rect x="64" y="256.094" fill="#603813" width="32" height="32"/>
	<rect x="64" y="224.094" fill="#A67C52" width="32" height="32"/>
	<rect x="64" y="192.094" fill="#A67C52" width="32" height="32"/>
	<rect x="256" y="192.094" fill="#A67C52" width="32" height="32"/>
	<rect x="256" y="160.094" fill="#A67C52" width="32" height="32"/>
	<rect x="64" y="160.094" fill="#A67C52" width="32" height="32"/>
	<rect x="1023" y="671.094" fill="#603813" width="32" height="32"/>
	<rect x="1023" y="639.094" fill="#603813" width="32" height="32"/>
	<rect x="1023" y="607.094" fill="#603813" width="32" height="32"/>
	<rect x="1023" y="575.094" fill="#603813" width="32" height="32"/>
	<rect x="1023" y="543.094" fill="#603813" width="32" height="32"/>
	<rect x="1023" y="511.094" fill="#603813" width="32" height="32"/>
	<rect x="1023" y="479.094" fill="#603813" width="32" height="32"/>
	<rect x="1023" y="448.094" fill="#603813" width="32" height="32"/>
	<rect x="1023" y="416.094" fill="#603813" width="32" height="32"/>
	<rect x="1023" y="384.094" fill="#603813" width="32" height="32"/>
	<rect x="1023" y="352.094" fill="#603813" width="32" height="32"/>
	<rect x="991" y="352.094" fill="#603813" width="32" height="32"/>
	<rect x="1023" y="320.094" fill="#603813" width="32" height="32"/>
	<rect x="1023" y="288.094" fill="#603813" width="32" height="32"/>
	<rect x="1023" y="256.094" fill="#603813" width="32" height="32"/>
	<rect x="1023" y="224.094" fill="#603813" width="32" height="32"/>
	<rect x="1023" y="192.094" fill="#603813" width="32" height="32"/>
	<rect x="1023" y="160.094" fill="#603813" width="32" height="32"/>
	<rect x="96" y="384.094" fill="#603813" width="32" height="32"/>
	<rect x="128" y="384.094" fill="#603813" width="32" height="32"/>
	<rect x="160" y="384.094" fill="#603813" width="32" height="32"/>
	<rect x="160" y="352.094" fill="#7594AF" width="32" height="32"/>
	<rect x="192" y="352.094" fill="#7594AF" width="32" height="32"/>
	<rect x="288" y="352.094" fill="#7594AF" width="32" height="32"/>
	<rect x="320" y="352.094" fill="#7594AF" width="32" height="32"/>
	<rect x="224" y="352.094" fill="#7594AF" width="32" height="32"/>
	<rect x="256" y="352.094" fill="#7594AF" width="32" height="32"/>
	<rect x="192" y="384.094" fill="#603813" width="32" height="32"/>
	<rect x="224" y="384.094" fill="#603813" width="32" height="32"/>
	<rect x="256" y="384.094" fill="#603813" width="32" height="32"/>
	<rect x="288" y="384.094" fill="#603813" width="32" height="32"/>
	<rect x="320" y="384.094" fill="#603813" width="32" height="32"/>
	<rect x="352" y="384.094" fill="#603813" width="32" height="32"/>
	<rect x="384" y="384.094" fill="#603813" width="32" height="32"/>
	<rect x="416" y="384.094" fill="#603813" width="32" height="32"/>
	<rect x="448" y="384.094" fill="#603813" width="32" height="32"/>
	<rect x="480" y="384.094" fill="#603813" width="32" height="32"/>
	<rect x="512" y="384.094" fill="#603813" width="32" height="32"/>
	<rect x="544" y="384.094" fill="#603813" width="32" height="32"/>
	<rect x="575" y="384.094" fill="#603813" width="32" height="32"/>
	<rect x="703" y="384.094" fill="#603813" width="32" height="32"/>
	<rect x="735" y="384.094" fill="#603813" width="32" height="32"/>
	<rect x="767" y="384.094" fill="#915C30" width="32" height="32"/>
	<rect x="799" y="384.094" fill="#603813" width="32" height="32"/>
	<rect x="831" y="384.094" fill="#603813" width="32" height="32"/>
	<rect x="863" y="384.094" fill="#603813" width="32" height="32"/>
	<rect x="895" y="384.094" fill="#603813" width="32" height="32"/>
	<rect x="927" y="384.094" fill="#603813" width="32" height="32"/>
	<rect x="959" y="384.094" fill="#603813" width="32" height="32"/>
	<rect x="991" y="384.094" fill="#603813" width="32" height="32"/>
	<rect x="959" y="352.094" fill="#603813" width="32" height="32"/>
	<rect x="927" y="352.094" fill="#603813" width="32" height="32"/>
	<rect x="991" y="671.094" fill="#603813" width="32" height="32"/>
	<rect x="991" y="639.094" fill="#603813" width="32" height="32"/>
	<rect x="991" y="607.094" fill="#603813" width="32" height="32"/>
	<rect x="991" y="575.094" fill="#603813" width="32" height="32"/>
	<rect x="991" y="543.094" fill="#603813" width="32" height="32"/>
	<polyline fill="#603813" points="991,511.094 991,543.094 1023,543.094 1023,511.094 991,511.094 	"/>
	<polyline fill="#603813" points="991,511.094 1023,511.094 1023,479.094 991,479.094 	"/>
	<polyline fill="#603813" points="991,480.094 1023,480.094 1023,448.094 991,448.094 	"/>
	<polyline fill="#603813" points="991,448.094 1023,448.094 1023,416.094 991,416.094 	"/>
	<polyline fill="#603813" points="991,416.094 1023,416.094 1023,384.094 991,384.094 	"/>
	<polyline fill="#603813" points="991,384.094 1023,384.094 1023,352.094 991,352.094 	"/>
	<polyline fill="#603813" points="991,352.094 1023,352.094 1023,320.094 991,320.094 991,352.094 	"/>
	<rect x="991" y="288.094" fill="#603813" width="32" height="32"/>
	<rect x="991" y="256.094" fill="#603813" width="32" height="32"/>
	<rect x="991" y="224.094" fill="#603813" width="32" height="32"/>
	<rect x="991" y="192.094" fill="#603813" width="32" height="32"/>
	<polyline fill="#603813" points="991,160.094 991,192.094 1023,192.094 1023,160.094 991,160.094 	"/>
	<rect x="959" y="320.094" fill="#603813" width="32" height="32"/>
	<rect x="927" y="320.094" fill="#603813" width="32" height="32"/>
	<rect x="959" y="288.094" fill="#603813" width="32" height="32"/>
	<rect x="927" y="288.094" fill="#603813" width="32" height="32"/>
	<rect x="128" y="352.094" fill="#A67C52" width="32" height="32"/>
	<rect x="96" y="352.094" fill="#A67C52" width="32" height="32"/>
	<rect x="320" y="320.094" fill="#A67C52" width="32" height="32"/>
	<rect x="320" y="288.094" fill="#A67C52" width="32" height="32"/>
	<rect x="320" y="256.094" fill="#A67C52" width="32" height="32"/>
	<rect x="256" y="224.094" fill="#7594AF" width="32" height="32"/>
	<rect x="288" y="224.094" fill="#7594AF" width="32" height="32"/>
	<rect x="384" y="224.094" fill="#7594AF" width="32" height="32"/>
	<rect x="416" y="224.094" fill="#7594AF" width="32" height="32"/>
	<rect x="320" y="224.094" fill="#7594AF" width="32" height="32"/>
	<rect x="352" y="224.094" fill="#7594AF" width="32" height="32"/>
	<rect x="959" y="256.094" fill="#A67C52" width="32" height="32"/>
	<rect x="959" y="224.094" fill="#A67C52" width="32" height="32"/>
	<rect x="959" y="192.094" fill="#A67C52" width="32" height="32"/>
	<polyline fill="#A67C52" points="959,160.094 959,192.094 991,192.094 991,160.094 959,160.094 	"/>
	<rect x="927" y="256.094" fill="#A67C52" width="32" height="32"/>
	<rect x="927" y="224.094" fill="#A67C52" width="32" height="32"/>
	<rect x="927" y="192.094" fill="#A67C52" width="32" height="32"/>
	<polyline fill="#A67C52" points="927,160.094 927,192.094 959,192.094 959,160.094 927,160.094 	"/>
	<rect x="895" y="256.094" fill="#A67C52" width="32" height="32"/>
	<rect x="895" y="224.094" fill="#A67C52" width="32" height="32"/>
	<rect x="895" y="192.094" fill="#A67C52" width="32" height="32"/>
	<polyline fill="#A67C52" points="895,160.094 895,192.094 927,192.094 927,160.094 895,160.094 	"/>
	<rect x="703" y="192.094" fill="#7594AF" width="32" height="32"/>
	<rect x="735" y="192.094" fill="#7594AF" width="32" height="32"/>
	<rect x="831" y="192.094" fill="#7594AF" width="32" height="32"/>
	<rect x="863" y="192.094" fill="#7594AF" width="32" height="32"/>
	<rect x="767" y="192.094" fill="#7594AF" width="32" height="32"/>
	<rect x="799" y="192.094" fill="#7594AF" width="32" height="32"/>
	<rect x="959" y="671.094" fill="#A67C52" width="32" height="32"/>
	<rect x="927" y="671.094" fill="#A67C52" width="32" height="32"/>
	<rect x="927" y="639.094" fill="#A67C52" width="32" height="32"/>
	<rect x="927" y="607.094" fill="#A67C52" width="32" height="32"/>
	<rect x="927" y="575.094" fill="#A67C52" width="32" height="32"/>
	<rect x="959" y="639.094" fill="#A67C52" width="32" height="32"/>
	<rect x="959" y="607.094" fill="#A67C52" width="32" height="32"/>
	<rect x="959" y="575.094" fill="#A67C52" width="32" height="32"/>
	<rect x="799" y="607.094" fill="#7594AF" width="32" height="32"/>
	<rect x="895" y="607.094" fill="#7594AF" width="32" height="32"/>
	<rect x="831" y="607.094" fill="#7594AF" width="32" height="32"/>
	<rect x="735" y="543.094" fill="#7594AF" width="32" height="32"/>
	<rect x="735" y="575.094" fill="#7594AF" width="32" height="32"/>
	<rect x="735" y="671.094" fill="#7594AF" width="32" height="32"/>
	<rect x="735" y="607.094" fill="#7594AF" width="32" height="32"/>
	<rect x="735" y="639.094" fill="#7594AF" width="32" height="32"/>
	<rect x="544" y="543.094" fill="#7594AF" width="32" height="32"/>
	<rect x="544" y="575.094" fill="#7594AF" width="32" height="32"/>
	<rect x="544" y="671.094" fill="#7594AF" width="32" height="32"/>
	<rect x="544" y="607.094" fill="#7594AF" width="32" height="32"/>
	<rect x="544" y="639.094" fill="#7594AF" width="32" height="32"/>
	<rect x="767" y="607.094" fill="#A67C52" width="32" height="32"/>
	<rect x="704" y="543.094" fill="#7594AF" width="32" height="32"/>
	<rect x="704" y="575.094" fill="#7594AF" width="32" height="32"/>
	<rect x="704" y="671.094" fill="#7594AF" width="32" height="32"/>
	<rect x="704" y="607.094" fill="#7594AF" width="32" height="32"/>
	<rect x="704" y="639.094" fill="#7594AF" width="32" height="32"/>
	<rect x="672" y="511.094" fill="#603813" width="32" height="32"/>
	<rect x="672" y="543.094" fill="#603813" width="32" height="32"/>
	<rect x="672" y="639.094" fill="#603813" width="32" height="32"/>
	<rect x="672" y="671.094" fill="#603813" width="32" height="32"/>
	<rect x="672" y="575.094" fill="#603813" width="32" height="32"/>
	<rect x="672" y="607.094" fill="#603813" width="32" height="32"/>
	<rect x="640" y="511.094" fill="#603813" width="32" height="32"/>
	<rect x="640" y="543.094" fill="#603813" width="32" height="32"/>
	<rect x="640" y="639.094" fill="#603813" width="32" height="32"/>
	<rect x="640" y="671.094" fill="#603813" width="32" height="32"/>
	<rect x="640" y="575.094" fill="#603813" width="32" height="32"/>
	<rect x="640" y="607.094" fill="#603813" width="32" height="32"/>
	<rect x="672" y="479.094" fill="#A67C52" width="32" height="32"/>
	<rect x="640" y="479.094" fill="#A67C52" width="32" height="32"/>
	<rect x="672" y="447.094" fill="#A67C52" width="32" height="32"/>
	<rect x="640" y="447.094" fill="#A67C52" width="32" height="32"/>
	<rect x="384" y="543.094" fill="#7594AF" width="32" height="32"/>
	<rect x="384" y="575.094" fill="#7594AF" width="32" height="32"/>
	<rect x="384" y="671.094" fill="#7594AF" width="32" height="32"/>
	<rect x="384" y="607.094" fill="#7594AF" width="32" height="32"/>
	<rect x="384" y="639.094" fill="#7594AF" width="32" height="32"/>
	<rect x="224" y="671.094" fill="#7594AF" width="32" height="32"/>
	<rect x="224" y="639.094" fill="#7594AF" width="32" height="32"/>
	<rect x="224" y="607.094" fill="#7594AF" width="32" height="32"/>
	<rect x="160" y="607.094" fill="#A67C52" width="32" height="32"/>
	<rect x="288" y="607.094" fill="#603813" width="32" height="32"/>
	<rect x="863" y="607.094" fill="#7594AF" width="32" height="32"/>
	<rect x="704" y="447.094" fill="#A67C52" width="32" height="32"/>
	<rect x="736" y="447.094" fill="#A67C52" width="32" height="32"/>
	<rect x="767" y="447.094" fill="#A67C52" width="32" height="32"/>
	<rect x="607" y="384.094" fill="#603813" width="32" height="32"/>
	<rect x="639" y="384.094" fill="#603813" width="32" height="32"/>
	<rect x="671" y="384.094" fill="#603813" width="32" height="32"/>
	<rect x="671" y="416.094" fill="#A67C52" width="32" height="32"/>
	<rect x="640" y="416.094" fill="#A67C52" width="32" height="32"/>
	<rect x="288" y="511.094" fill="#603813" width="32" height="32"/>
	<rect x="288" y="543.094" fill="#603813" width="32" height="32"/>
	<rect x="288" y="639.094" fill="#603813" width="32" height="32"/>
	<rect x="288" y="671.094" fill="#603813" width="32" height="32"/>
	<rect x="288" y="575.094" fill="#603813" width="32" height="32"/>
	<line fill="#603813" x1="320" y1="607.094" x2="288" y2="607.094"/>
	<rect x="256" y="511.094" fill="#603813" width="32" height="32"/>
	<rect x="256" y="543.094" fill="#603813" width="32" height="32"/>
	<rect x="256" y="639.094" fill="#603813" width="32" height="32"/>
	<rect x="256" y="671.094" fill="#603813" width="32" height="32"/>
	<rect x="256" y="575.094" fill="#603813" width="32" height="32"/>
	<rect x="256" y="607.094" fill="#603813" width="32" height="32"/>
	<rect x="192" y="607.094" fill="#A67C52" width="32" height="32"/>
	<rect x="32" y="703.094" fill="#603813" width="32" height="32"/>
	<rect y="735.094" fill="#603813" width="32" height="32"/>
	<rect x="32" y="735.094" fill="#603813" width="32" height="32"/>
</g>
<g id="roof">
	<polygon fill="#603813" points="831,32.094 815,16.094 799,0.094 799,32.094 	"/>
	<polygon fill="#603813" points="927,128.094 911,112.094 895,96.094 895,128.094 	"/>
	<path fill="#603813" d="M927,128.094"/>
	<path fill="#603813" d="M799,0.094"/>
	<path fill="#603813" d="M959,128.094"/>
	<polyline fill="#492D15" points="99,160.094 1055,160.094 1055,160.094 878.387,0.094 241.282,0.094 99.457,160.094 64,160.094 
		241.054,0 	"/>
	<path fill="#603813" d="M895,96.094"/>
</g>
</svg>
