<?xml version="1.0" encoding="UTF-8" standalone="no"?>
<!-- Created with Inkscape (http://www.inkscape.org/) -->

<svg
   xmlns:dc="http://purl.org/dc/elements/1.1/"
   xmlns:cc="http://creativecommons.org/ns#"
   xmlns:rdf="http://www.w3.org/1999/02/22-rdf-syntax-ns#"
   xmlns:svg="http://www.w3.org/2000/svg"
   xmlns="http://www.w3.org/2000/svg"
   xmlns:sodipodi="http://sodipodi.sourceforge.net/DTD/sodipodi-0.dtd"
   xmlns:inkscape="http://www.inkscape.org/namespaces/inkscape"
   width="128"
   height="128"
   id="svg7793"
   version="1.1"
   inkscape:version="0.48.4 r9939"
   sodipodi:docname="New document 5">
  <defs
     id="defs7795" />
  <sodipodi:namedview
     id="base"
     pagecolor="#ffffff"
     bordercolor="#666666"
     borderopacity="1.0"
     inkscape:pageopacity="0.0"
     inkscape:pageshadow="2"
     inkscape:zoom="2.8"
     inkscape:cx="158.46776"
     inkscape:cy="59.423606"
     inkscape:document-units="px"
     inkscape:current-layer="layer1"
     showgrid="false"
     inkscape:window-width="1600"
     inkscape:window-height="845"
     inkscape:window-x="0"
     inkscape:window-y="0"
     inkscape:window-maximized="1" />
  <metadata
     id="metadata7798">
    <rdf:RDF>
      <cc:Work
         rdf:about="">
        <dc:format>image/svg+xml</dc:format>
        <dc:type
           rdf:resource="http://purl.org/dc/dcmitype/StillImage" />
        <dc:title></dc:title>
      </cc:Work>
    </rdf:RDF>
  </metadata>
  <g
     inkscape:label="Layer 1"
     inkscape:groupmode="layer"
     id="layer1"
     transform="translate(0,-924.36218)">
    <path
       style="fill:#9c74bb;fill-opacity:1;stroke:#9c74bb;stroke-width:0.75912702px;stroke-linecap:butt;stroke-linejoin:miter;stroke-opacity:1"
       d="m 39.374294,1051.9826 0.580571,-88.49887 11.611337,-0.37982 0.387048,88.68869 z"
       id="path3175"
       inkscape:connector-curvature="0"
       sodipodi:nodetypes="ccccc" />
    <path
       style="fill:#9c74bb;fill-opacity:1;stroke:#9c74bb;stroke-width:0.75912702px;stroke-linecap:butt;stroke-linejoin:miter;stroke-opacity:1"
       d="m 34.72976,953.51336 c 0.38704,1.42435 0.09676,5.6024 0.09676,5.6024 l -34.4470175,0 5.8057145,-5.31753 z"
       id="path3177"
       inkscape:connector-curvature="0" />
    <path
       style="fill:#9c74bb;fill-opacity:1;stroke:#9c74bb;stroke-width:0.75912702px;stroke-linecap:butt;stroke-linejoin:miter;stroke-opacity:1"
       d="m 56.888069,953.89319 -0.193524,5.69735 70.925955,-0.095 -6.19271,-6.17212 z"
       id="path3179"
       inkscape:connector-curvature="0" />
    <path
       style="fill:#614a74;fill-opacity:1;stroke:#614a74;stroke-width:0.75912701999999999px;stroke-linecap:butt;stroke-linejoin:miter;stroke-opacity:1"
       d="m 110.30025,952.56381 -63.281819,-22.31462 0.774087,2.46885 60.572512,20.98524 2.61255,-0.18992 z"
       id="path3181"
       inkscape:connector-curvature="0" />
    <path
       style="fill:#614a74;fill-opacity:1;stroke:#614a74;stroke-width:0.75912701999999999px;stroke-linecap:butt;stroke-linejoin:miter;stroke-opacity:1"
       d="m 43.728549,933.38273 -30.092731,20.79533 -2.902835,-0.095 33.963177,-23.92887 z"
       id="path3183"
       inkscape:connector-curvature="0" />
    <path
       style="fill:#9c74bb;fill-opacity:1;stroke:#9c74bb;stroke-width:0.75912702px;stroke-linecap:butt;stroke-linejoin:miter;stroke-opacity:1"
       d="m 40.245143,944.01779 5.321867,-19.27603 5.418628,18.8962 z"
       id="path3185"
       inkscape:connector-curvature="0" />
    <path
       style="fill:#9c74bb;fill-opacity:1;stroke:#9c74bb;stroke-width:0.75912701999999999px;stroke-linecap:butt;stroke-linejoin:miter;stroke-opacity:1"
       d="m 108.31664,987.08025 0.0968,2.46886 -0.87085,0.0474 0.43542,4.03562 c -1.83477,1.66173 -1.52919,3.32345 -0.67732,4.98518 0.93086,0.96522 2.47198,1.09204 4.69291,0.28487 1.5948,-1.44194 1.54074,-2.26152 1.4998,-3.08607 -0.26261,-0.49751 -0.54789,-0.87267 -1.06437,0 -0.0495,1.20057 -0.66393,1.2924 -1.20952,1.5193 l -1.88684,-0.37983 c -0.75029,-1.53745 0.0924,-1.97588 0.72571,-2.89614 l 0.7257,-0.6647 -0.0483,-3.75076 -0.77409,-0.0475 -0.0483,-2.65876 z"
       id="path3191"
       inkscape:connector-curvature="0"
       sodipodi:nodetypes="cccccccccccccccc" />
    <path
       style="fill:#614a74;fill-opacity:1;stroke:#614a74;stroke-width:0.75912701999999999px;stroke-linecap:butt;stroke-linejoin:miter;stroke-opacity:1"
       d="m 105.17191,963.48373 7.93441,-0.095 0,17.09204 -7.83765,0 -3.67693,0.095 4.16073,6.17213 6.28948,0 5.41863,-5.88726 -2.80607,-0.095 -0.0968,-21.0802 -11.41782,-0.0949 0.29028,21.17515 2.03199,0 z"
       id="path3187"
       inkscape:connector-curvature="0" />
    <rect
       style="fill:#614a74;fill-opacity:1;stroke:#614a74;stroke-width:1.78850317;stroke-miterlimit:4;stroke-opacity:1;stroke-dasharray:none;stroke-dashoffset:0"
       id="rect3189"
       width="22.852446"
       height="18.666006"
       x="34.175903"
       y="943.96619" />
  </g>
</svg>
