<?xml version="1.0" encoding="UTF-8" standalone="no"?>
<!-- Created with Inkscape (http://www.inkscape.org/) -->

<svg
   xmlns:dc="http://purl.org/dc/elements/1.1/"
   xmlns:cc="http://creativecommons.org/ns#"
   xmlns:rdf="http://www.w3.org/1999/02/22-rdf-syntax-ns#"
   xmlns:svg="http://www.w3.org/2000/svg"
   xmlns="http://www.w3.org/2000/svg"
   xmlns:sodipodi="http://sodipodi.sourceforge.net/DTD/sodipodi-0.dtd"
   xmlns:inkscape="http://www.inkscape.org/namespaces/inkscape"
   width="640"
   height="640"
   id="svg5492"
   version="1.1"
   inkscape:version="0.48.4 r9939"
   sodipodi:docname="factory_room.svg"
   inkscape:export-filename="/var/www/html/furry-sansa4/assets/src/factory_room.png"
   inkscape:export-xdpi="90"
   inkscape:export-ydpi="90">
  <defs
     id="defs5494" />
  <sodipodi:namedview
     id="base"
     pagecolor="#ffffff"
     bordercolor="#666666"
     borderopacity="1.0"
     inkscape:pageopacity="0.0"
     inkscape:pageshadow="2"
     inkscape:zoom="0.7"
     inkscape:cx="338.03458"
     inkscape:cy="528.11988"
     inkscape:document-units="px"
     inkscape:current-layer="layer1"
     showgrid="false"
     fit-margin-top="0"
     fit-margin-left="0"
     fit-margin-right="0"
     fit-margin-bottom="0"
     inkscape:window-width="1600"
     inkscape:window-height="845"
     inkscape:window-x="0"
     inkscape:window-y="0"
     inkscape:window-maximized="1" />
  <metadata
     id="metadata5497">
    <rdf:RDF>
      <cc:Work
         rdf:about="">
        <dc:format>image/svg+xml</dc:format>
        <dc:type
           rdf:resource="http://purl.org/dc/dcmitype/StillImage" />
        <dc:title></dc:title>
      </cc:Work>
    </rdf:RDF>
  </metadata>
  <g
     inkscape:label="Layer 1"
     inkscape:groupmode="layer"
     id="layer1"
     transform="translate(-81.464944,-161.80194)">
    <rect
       style="fill:#1c1c24;fill-opacity:1;stroke:#1c1c24;stroke-width:4.44974184;stroke-linecap:butt;stroke-linejoin:miter;stroke-miterlimit:4;stroke-opacity:1;stroke-dasharray:none;stroke-dashoffset:0"
       id="rect14524"
       width="635.55023"
       height="635.55023"
       x="83.689812"
       y="164.02678" />
    <path
       sodipodi:open="true"
       sodipodi:end="12.355544"
       sodipodi:start="6.0730652"
       transform="matrix(1.3065037,0,0,1.3065037,-658.99456,-182.67841)"
       d="m 939.46189,466.6524 a 136.87567,140.41121 0 1 1 -0.0202,-0.097"
       sodipodi:ry="140.41121"
       sodipodi:rx="136.87567"
       sodipodi:cy="495.939"
       sodipodi:cx="805.59668"
       id="path14526"
       style="opacity:0.2;fill:#ffcc00;fill-opacity:1;stroke:#ffcc00;stroke-width:5;stroke-linecap:butt;stroke-linejoin:miter;stroke-miterlimit:4;stroke-opacity:1;stroke-dasharray:none;stroke-dashoffset:0"
       sodipodi:type="arc" />
    <path
       style="fill:none;stroke:#000000;stroke-width:2.01068425;stroke-linecap:butt;stroke-linejoin:miter;stroke-miterlimit:4;stroke-opacity:1;stroke-dasharray:none"
       d="m 393.38121,163.28104 0.27857,276.27083"
       id="path13711"
       inkscape:connector-curvature="0" />
    <g
       id="g13732"
       transform="matrix(0.13347762,0,0,0.13347762,273.27516,366.67398)">
      <path
         sodipodi:nodetypes="ccccccc"
         transform="translate(0,152.36218)"
         inkscape:connector-curvature="0"
         id="path13724"
         d="m 936.66395,461.08872 0.12627,-46.34075 -15.78364,-13.63706 -34.09264,0.25254 -14.64721,15.40483 -1e-5,45.20432 c 19.9498,-5.17933 41.41697,-5.46936 64.39723,-0.88388 z"
         style="fill:#78777d;fill-opacity:1;stroke:#78777d;stroke-width:1px;stroke-linecap:butt;stroke-linejoin:miter;stroke-opacity:1" />
      <path
         sodipodi:nodetypes="ccccc"
         transform="translate(0,152.36218)"
         inkscape:connector-curvature="0"
         id="path13726"
         d="m 887.41072,400.53571 3.21428,-6.51785 c 7.05123,-1.23154 12.45345,-4.04039 24.64286,-0.35715 l 5.625,6.875 z"
         style="fill:#212026;fill-opacity:1;stroke:#212026;stroke-width:1px;stroke-linecap:butt;stroke-linejoin:miter;stroke-opacity:1" />
      <path
         sodipodi:nodetypes="ccccccccccccccc"
         transform="translate(0,152.36218)"
         inkscape:connector-curvature="0"
         id="path13728"
         d="m 852.82129,650.49232 c -9.90663,-10.99868 -18.43194,-22.68801 -22.98097,-36.36549 -4.25966,-16.12603 -4.40017,-32.78356 1.76776,-50.25509 10.31874,-19.00229 23.23155,-35.92933 30.55712,-57.32616 3.55439,-12.34723 1.70288,-25.23505 2.27284,-37.88072 1.71762,-2.09135 2.51169,-4.28531 7.07107,-6.06091 11.70093,-3.53954 23.40187,-3.79576 34.33522,-4.79823 10.93334,1.00247 22.63428,1.25869 34.33521,4.79823 4.55938,1.7756 5.35345,3.96956 7.07107,6.06091 0.56996,12.64567 -1.28155,25.53349 2.27284,37.88072 7.32557,21.39683 20.23838,38.32387 30.55712,57.32616 6.16793,17.47153 6.02742,34.12906 1.76776,50.25509 -4.54903,13.67748 -13.07434,25.36681 -22.98097,36.36549 -15.11046,13.11967 -31.89015,22.25174 -53.02303,20.96067 -21.13289,1.29107 -37.91258,-7.841 -53.02304,-20.96067 z"
         style="fill:#ffcc00;stroke:#ffcc00;stroke-width:1px;stroke-linecap:butt;stroke-linejoin:miter;stroke-opacity:1" />
    </g>
    <path
       sodipodi:type="arc"
       style="opacity:0.2;fill:#ffcc00;fill-opacity:1;stroke:#ffcc00;stroke-width:5;stroke-linecap:butt;stroke-linejoin:miter;stroke-miterlimit:4;stroke-opacity:1;stroke-dasharray:none;stroke-dashoffset:0"
       id="path13737"
       sodipodi:cx="805.59668"
       sodipodi:cy="495.939"
       sodipodi:rx="136.87567"
       sodipodi:ry="140.41121"
       d="m 939.46189,466.6524 a 136.87567,140.41121 0 1 1 -0.0202,-0.097"
       transform="matrix(0.29131604,0,0,0.29131604,158.83728,320.79279)"
       sodipodi:start="6.0730652"
       sodipodi:end="12.355544"
       sodipodi:open="true" />
  </g>
</svg>
