<?xml version="1.0" encoding="UTF-8" standalone="no"?>
<!-- Created with Inkscape (http://www.inkscape.org/) -->

<svg
   xmlns:dc="http://purl.org/dc/elements/1.1/"
   xmlns:cc="http://creativecommons.org/ns#"
   xmlns:rdf="http://www.w3.org/1999/02/22-rdf-syntax-ns#"
   xmlns:svg="http://www.w3.org/2000/svg"
   xmlns="http://www.w3.org/2000/svg"
   xmlns:sodipodi="http://sodipodi.sourceforge.net/DTD/sodipodi-0.dtd"
   xmlns:inkscape="http://www.inkscape.org/namespaces/inkscape"
   width="256"
   height="32"
   id="svg6781"
   version="1.1"
   inkscape:version="0.48.4 r9939"
   sodipodi:docname="New document 16">
  <defs
     id="defs6783" />
  <sodipodi:namedview
     id="base"
     pagecolor="#ffffff"
     bordercolor="#666666"
     borderopacity="1.0"
     inkscape:pageopacity="0.0"
     inkscape:pageshadow="2"
     inkscape:zoom="3.959798"
     inkscape:cx="123.25488"
     inkscape:cy="12.402135"
     inkscape:document-units="px"
     inkscape:current-layer="g7666"
     showgrid="false"
     inkscape:window-width="1600"
     inkscape:window-height="845"
     inkscape:window-x="0"
     inkscape:window-y="0"
     inkscape:window-maximized="1" />
  <metadata
     id="metadata6786">
    <rdf:RDF>
      <cc:Work
         rdf:about="">
        <dc:format>image/svg+xml</dc:format>
        <dc:type
           rdf:resource="http://purl.org/dc/dcmitype/StillImage" />
        <dc:title></dc:title>
      </cc:Work>
    </rdf:RDF>
  </metadata>
  <g
     inkscape:label="Layer 1"
     inkscape:groupmode="layer"
     id="layer1"
     transform="translate(0,-1020.3622)">
    <g
       id="g13844"
       transform="matrix(0.3753179,0,0,0.6257123,-294.73049,134.64665)">
      <path
         transform="translate(0,152.36218)"
         sodipodi:nodetypes="ccccc"
         inkscape:connector-curvature="0"
         id="path13750"
         d="m 1121.2693,1277.292 -332.84524,-0.5051 c -3.97456,14.2812 -3.07793,26.3973 1.51523,36.8706 l 331.62591,0.056 c 5.3194,-12.7953 5.813,-23.6262 -0.2959,-36.4215 z"
         style="fill:#e7e2de;fill-opacity:1;stroke:#e7e2de;stroke-width:1px;stroke-linecap:butt;stroke-linejoin:miter;stroke-opacity:1" />
      <path
         transform="translate(0,152.36218)"
         inkscape:connector-curvature="0"
         id="path13752"
         d="m 788.03572,1275.8929 14.28571,-12.3215 311.78567,0 7.3215,13.2143 z"
         style="fill:#f9f9f9;stroke:#f9f9f9;stroke-width:1px;stroke-linecap:butt;stroke-linejoin:miter;stroke-opacity:1" />
      <path
         transform="matrix(1.3966292,0,0,0.16215081,-326.58833,1218.7689)"
         d="m 814.10716,1270.4464 a 3.3035715,3.125 0 1 1 -6.60714,0 3.3035715,3.125 0 1 1 6.60714,0 z"
         sodipodi:ry="3.125"
         sodipodi:rx="3.3035715"
         sodipodi:cy="1270.4464"
         sodipodi:cx="810.80359"
         id="path13754"
         style="opacity:0.2;fill:#000000;fill-opacity:1;stroke:#000000;stroke-width:5;stroke-linecap:butt;stroke-linejoin:miter;stroke-miterlimit:4;stroke-opacity:1;stroke-dasharray:none;stroke-dashoffset:0"
         sodipodi:type="arc" />
      <path
         sodipodi:type="arc"
         style="opacity:0.2;fill:#000000;fill-opacity:1;stroke:#000000;stroke-width:5;stroke-linecap:butt;stroke-linejoin:miter;stroke-miterlimit:4;stroke-opacity:1;stroke-dasharray:none;stroke-dashoffset:0"
         id="path13756"
         sodipodi:cx="810.80359"
         sodipodi:cy="1270.4464"
         sodipodi:rx="3.3035715"
         sodipodi:ry="3.125"
         d="m 814.10716,1270.4464 a 3.3035715,3.125 0 1 1 -6.60714,0 3.3035715,3.125 0 1 1 6.60714,0 z"
         transform="matrix(0.80873383,0,0,0.06985989,153.86742,1329.4536)" />
      <path
         sodipodi:type="arc"
         style="opacity:0.2;fill:#000000;fill-opacity:1;stroke:#000000;stroke-width:5;stroke-linecap:butt;stroke-linejoin:miter;stroke-miterlimit:4;stroke-opacity:1;stroke-dasharray:none;stroke-dashoffset:0"
         id="path13758"
         sodipodi:cx="810.80359"
         sodipodi:cy="1270.4464"
         sodipodi:rx="3.3035715"
         sodipodi:ry="3.125"
         d="m 814.10716,1270.4464 a 3.3035715,3.125 0 1 1 -6.60714,0 3.3035715,3.125 0 1 1 6.60714,0 z"
         transform="matrix(1.3966292,0,0,0.16215081,-304.87005,1218.7689)" />
      <path
         transform="matrix(0.80873383,0,0,0.06985989,175.5857,1329.4536)"
         d="m 814.10716,1270.4464 a 3.3035715,3.125 0 1 1 -6.60714,0 3.3035715,3.125 0 1 1 6.60714,0 z"
         sodipodi:ry="3.125"
         sodipodi:rx="3.3035715"
         sodipodi:cy="1270.4464"
         sodipodi:cx="810.80359"
         id="path13760"
         style="opacity:0.2;fill:#000000;fill-opacity:1;stroke:#000000;stroke-width:5;stroke-linecap:butt;stroke-linejoin:miter;stroke-miterlimit:4;stroke-opacity:1;stroke-dasharray:none;stroke-dashoffset:0"
         sodipodi:type="arc" />
      <path
         transform="matrix(1.3966292,0,0,0.16215081,-284.28819,1218.7689)"
         d="m 814.10716,1270.4464 a 3.3035715,3.125 0 1 1 -6.60714,0 3.3035715,3.125 0 1 1 6.60714,0 z"
         sodipodi:ry="3.125"
         sodipodi:rx="3.3035715"
         sodipodi:cy="1270.4464"
         sodipodi:cx="810.80359"
         id="path13762"
         style="opacity:0.2;fill:#000000;fill-opacity:1;stroke:#000000;stroke-width:5;stroke-linecap:butt;stroke-linejoin:miter;stroke-miterlimit:4;stroke-opacity:1;stroke-dasharray:none;stroke-dashoffset:0"
         sodipodi:type="arc" />
      <path
         sodipodi:type="arc"
         style="opacity:0.2;fill:#000000;fill-opacity:1;stroke:#000000;stroke-width:5;stroke-linecap:butt;stroke-linejoin:miter;stroke-miterlimit:4;stroke-opacity:1;stroke-dasharray:none;stroke-dashoffset:0"
         id="path13764"
         sodipodi:cx="810.80359"
         sodipodi:cy="1270.4464"
         sodipodi:rx="3.3035715"
         sodipodi:ry="3.125"
         d="m 814.10716,1270.4464 a 3.3035715,3.125 0 1 1 -6.60714,0 3.3035715,3.125 0 1 1 6.60714,0 z"
         transform="matrix(0.80873383,0,0,0.06985989,196.16756,1329.4536)" />
      <path
         sodipodi:type="arc"
         style="opacity:0.2;fill:#000000;fill-opacity:1;stroke:#000000;stroke-width:5;stroke-linecap:butt;stroke-linejoin:miter;stroke-miterlimit:4;stroke-opacity:1;stroke-dasharray:none;stroke-dashoffset:0"
         id="path13766"
         sodipodi:cx="810.80359"
         sodipodi:cy="1270.4464"
         sodipodi:rx="3.3035715"
         sodipodi:ry="3.125"
         d="m 814.10716,1270.4464 a 3.3035715,3.125 0 1 1 -6.60714,0 3.3035715,3.125 0 1 1 6.60714,0 z"
         transform="matrix(1.3966292,0,0,0.16215081,-265.22156,1218.7689)" />
      <path
         transform="matrix(0.80873383,0,0,0.06985989,215.23419,1329.4536)"
         d="m 814.10716,1270.4464 a 3.3035715,3.125 0 1 1 -6.60714,0 3.3035715,3.125 0 1 1 6.60714,0 z"
         sodipodi:ry="3.125"
         sodipodi:rx="3.3035715"
         sodipodi:cy="1270.4464"
         sodipodi:cx="810.80359"
         id="path13768"
         style="opacity:0.2;fill:#000000;fill-opacity:1;stroke:#000000;stroke-width:5;stroke-linecap:butt;stroke-linejoin:miter;stroke-miterlimit:4;stroke-opacity:1;stroke-dasharray:none;stroke-dashoffset:0"
         sodipodi:type="arc" />
      <path
         transform="matrix(1.3966292,0,0,0.16215081,-244.26089,1218.7689)"
         d="m 814.10716,1270.4464 a 3.3035715,3.125 0 1 1 -6.60714,0 3.3035715,3.125 0 1 1 6.60714,0 z"
         sodipodi:ry="3.125"
         sodipodi:rx="3.3035715"
         sodipodi:cy="1270.4464"
         sodipodi:cx="810.80359"
         id="path13770"
         style="opacity:0.2;fill:#000000;fill-opacity:1;stroke:#000000;stroke-width:5;stroke-linecap:butt;stroke-linejoin:miter;stroke-miterlimit:4;stroke-opacity:1;stroke-dasharray:none;stroke-dashoffset:0"
         sodipodi:type="arc" />
      <path
         sodipodi:type="arc"
         style="opacity:0.2;fill:#000000;fill-opacity:1;stroke:#000000;stroke-width:5;stroke-linecap:butt;stroke-linejoin:miter;stroke-miterlimit:4;stroke-opacity:1;stroke-dasharray:none;stroke-dashoffset:0"
         id="path13772"
         sodipodi:cx="810.80359"
         sodipodi:cy="1270.4464"
         sodipodi:rx="3.3035715"
         sodipodi:ry="3.125"
         d="m 814.10716,1270.4464 a 3.3035715,3.125 0 1 1 -6.60714,0 3.3035715,3.125 0 1 1 6.60714,0 z"
         transform="matrix(0.80873383,0,0,0.06985989,236.19486,1329.4536)" />
      <path
         sodipodi:type="arc"
         style="opacity:0.2;fill:#000000;fill-opacity:1;stroke:#000000;stroke-width:5;stroke-linecap:butt;stroke-linejoin:miter;stroke-miterlimit:4;stroke-opacity:1;stroke-dasharray:none;stroke-dashoffset:0"
         id="path13774"
         sodipodi:cx="810.80359"
         sodipodi:cy="1270.4464"
         sodipodi:rx="3.3035715"
         sodipodi:ry="3.125"
         d="m 814.10716,1270.4464 a 3.3035715,3.125 0 1 1 -6.60714,0 3.3035715,3.125 0 1 1 6.60714,0 z"
         transform="matrix(1.3966292,0,0,0.16215081,-225.06799,1218.7689)" />
      <path
         transform="matrix(0.80873383,0,0,0.06985989,255.38776,1329.4536)"
         d="m 814.10716,1270.4464 a 3.3035715,3.125 0 1 1 -6.60714,0 3.3035715,3.125 0 1 1 6.60714,0 z"
         sodipodi:ry="3.125"
         sodipodi:rx="3.3035715"
         sodipodi:cy="1270.4464"
         sodipodi:cx="810.80359"
         id="path13776"
         style="opacity:0.2;fill:#000000;fill-opacity:1;stroke:#000000;stroke-width:5;stroke-linecap:butt;stroke-linejoin:miter;stroke-miterlimit:4;stroke-opacity:1;stroke-dasharray:none;stroke-dashoffset:0"
         sodipodi:type="arc" />
      <path
         transform="matrix(1.3966292,0,0,0.16215081,-201.45567,1218.7689)"
         d="m 814.10716,1270.4464 a 3.3035715,3.125 0 1 1 -6.60714,0 3.3035715,3.125 0 1 1 6.60714,0 z"
         sodipodi:ry="3.125"
         sodipodi:rx="3.3035715"
         sodipodi:cy="1270.4464"
         sodipodi:cx="810.80359"
         id="path13778"
         style="opacity:0.2;fill:#000000;fill-opacity:1;stroke:#000000;stroke-width:5;stroke-linecap:butt;stroke-linejoin:miter;stroke-miterlimit:4;stroke-opacity:1;stroke-dasharray:none;stroke-dashoffset:0"
         sodipodi:type="arc" />
      <path
         sodipodi:type="arc"
         style="opacity:0.2;fill:#000000;fill-opacity:1;stroke:#000000;stroke-width:5;stroke-linecap:butt;stroke-linejoin:miter;stroke-miterlimit:4;stroke-opacity:1;stroke-dasharray:none;stroke-dashoffset:0"
         id="path13780"
         sodipodi:cx="810.80359"
         sodipodi:cy="1270.4464"
         sodipodi:rx="3.3035715"
         sodipodi:ry="3.125"
         d="m 814.10716,1270.4464 a 3.3035715,3.125 0 1 1 -6.60714,0 3.3035715,3.125 0 1 1 6.60714,0 z"
         transform="matrix(0.80873383,0,0,0.06985989,279.00008,1329.4536)" />
      <path
         sodipodi:type="arc"
         style="opacity:0.2;fill:#000000;fill-opacity:1;stroke:#000000;stroke-width:5;stroke-linecap:butt;stroke-linejoin:miter;stroke-miterlimit:4;stroke-opacity:1;stroke-dasharray:none;stroke-dashoffset:0"
         id="path13782"
         sodipodi:cx="810.80359"
         sodipodi:cy="1270.4464"
         sodipodi:rx="3.3035715"
         sodipodi:ry="3.125"
         d="m 814.10716,1270.4464 a 3.3035715,3.125 0 1 1 -6.60714,0 3.3035715,3.125 0 1 1 6.60714,0 z"
         transform="matrix(1.3966292,0,0,0.16215081,-181.7577,1218.7689)" />
      <path
         transform="matrix(0.80873383,0,0,0.06985989,298.69805,1329.4536)"
         d="m 814.10716,1270.4464 a 3.3035715,3.125 0 1 1 -6.60714,0 3.3035715,3.125 0 1 1 6.60714,0 z"
         sodipodi:ry="3.125"
         sodipodi:rx="3.3035715"
         sodipodi:cy="1270.4464"
         sodipodi:cx="810.80359"
         id="path13784"
         style="opacity:0.2;fill:#000000;fill-opacity:1;stroke:#000000;stroke-width:5;stroke-linecap:butt;stroke-linejoin:miter;stroke-miterlimit:4;stroke-opacity:1;stroke-dasharray:none;stroke-dashoffset:0"
         sodipodi:type="arc" />
      <path
         transform="matrix(1.3966292,0,0,0.16215081,-161.04957,1218.7689)"
         d="m 814.10716,1270.4464 a 3.3035715,3.125 0 1 1 -6.60714,0 3.3035715,3.125 0 1 1 6.60714,0 z"
         sodipodi:ry="3.125"
         sodipodi:rx="3.3035715"
         sodipodi:cy="1270.4464"
         sodipodi:cx="810.80359"
         id="path13786"
         style="opacity:0.2;fill:#000000;fill-opacity:1;stroke:#000000;stroke-width:5;stroke-linecap:butt;stroke-linejoin:miter;stroke-miterlimit:4;stroke-opacity:1;stroke-dasharray:none;stroke-dashoffset:0"
         sodipodi:type="arc" />
      <path
         sodipodi:type="arc"
         style="opacity:0.2;fill:#000000;fill-opacity:1;stroke:#000000;stroke-width:5;stroke-linecap:butt;stroke-linejoin:miter;stroke-miterlimit:4;stroke-opacity:1;stroke-dasharray:none;stroke-dashoffset:0"
         id="path13788"
         sodipodi:cx="810.80359"
         sodipodi:cy="1270.4464"
         sodipodi:rx="3.3035715"
         sodipodi:ry="3.125"
         d="m 814.10716,1270.4464 a 3.3035715,3.125 0 1 1 -6.60714,0 3.3035715,3.125 0 1 1 6.60714,0 z"
         transform="matrix(0.80873383,0,0,0.06985989,319.40618,1329.4536)" />
      <path
         sodipodi:type="arc"
         style="opacity:0.2;fill:#000000;fill-opacity:1;stroke:#000000;stroke-width:5;stroke-linecap:butt;stroke-linejoin:miter;stroke-miterlimit:4;stroke-opacity:1;stroke-dasharray:none;stroke-dashoffset:0"
         id="path13790"
         sodipodi:cx="810.80359"
         sodipodi:cy="1270.4464"
         sodipodi:rx="3.3035715"
         sodipodi:ry="3.125"
         d="m 814.10716,1270.4464 a 3.3035715,3.125 0 1 1 -6.60714,0 3.3035715,3.125 0 1 1 6.60714,0 z"
         transform="matrix(1.3966292,0,0,0.16215081,-136.55337,1218.7689)" />
      <path
         transform="matrix(0.80873383,0,0,0.06985989,343.90238,1329.4536)"
         d="m 814.10716,1270.4464 a 3.3035715,3.125 0 1 1 -6.60714,0 3.3035715,3.125 0 1 1 6.60714,0 z"
         sodipodi:ry="3.125"
         sodipodi:rx="3.3035715"
         sodipodi:cy="1270.4464"
         sodipodi:cx="810.80359"
         id="path13792"
         style="opacity:0.2;fill:#000000;fill-opacity:1;stroke:#000000;stroke-width:5;stroke-linecap:butt;stroke-linejoin:miter;stroke-miterlimit:4;stroke-opacity:1;stroke-dasharray:none;stroke-dashoffset:0"
         sodipodi:type="arc" />
      <path
         transform="matrix(1.3966292,0,0,0.16215081,-114.58255,1218.7689)"
         d="m 814.10716,1270.4464 a 3.3035715,3.125 0 1 1 -6.60714,0 3.3035715,3.125 0 1 1 6.60714,0 z"
         sodipodi:ry="3.125"
         sodipodi:rx="3.3035715"
         sodipodi:cy="1270.4464"
         sodipodi:cx="810.80359"
         id="path13794"
         style="opacity:0.2;fill:#000000;fill-opacity:1;stroke:#000000;stroke-width:5;stroke-linecap:butt;stroke-linejoin:miter;stroke-miterlimit:4;stroke-opacity:1;stroke-dasharray:none;stroke-dashoffset:0"
         sodipodi:type="arc" />
      <path
         sodipodi:type="arc"
         style="opacity:0.2;fill:#000000;fill-opacity:1;stroke:#000000;stroke-width:5;stroke-linecap:butt;stroke-linejoin:miter;stroke-miterlimit:4;stroke-opacity:1;stroke-dasharray:none;stroke-dashoffset:0"
         id="path13796"
         sodipodi:cx="810.80359"
         sodipodi:cy="1270.4464"
         sodipodi:rx="3.3035715"
         sodipodi:ry="3.125"
         d="m 814.10716,1270.4464 a 3.3035715,3.125 0 1 1 -6.60714,0 3.3035715,3.125 0 1 1 6.60714,0 z"
         transform="matrix(0.80873383,0,0,0.06985989,365.8732,1329.4536)" />
      <path
         sodipodi:type="arc"
         style="opacity:0.2;fill:#000000;fill-opacity:1;stroke:#000000;stroke-width:5;stroke-linecap:butt;stroke-linejoin:miter;stroke-miterlimit:4;stroke-opacity:1;stroke-dasharray:none;stroke-dashoffset:0"
         id="path13798"
         sodipodi:cx="810.80359"
         sodipodi:cy="1270.4464"
         sodipodi:rx="3.3035715"
         sodipodi:ry="3.125"
         d="m 814.10716,1270.4464 a 3.3035715,3.125 0 1 1 -6.60714,0 3.3035715,3.125 0 1 1 6.60714,0 z"
         transform="matrix(1.3966292,0,0,0.16215081,-88.066046,1218.7689)" />
      <path
         transform="matrix(0.80873383,0,0,0.06985989,392.3897,1329.4536)"
         d="m 814.10716,1270.4464 a 3.3035715,3.125 0 1 1 -6.60714,0 3.3035715,3.125 0 1 1 6.60714,0 z"
         sodipodi:ry="3.125"
         sodipodi:rx="3.3035715"
         sodipodi:cy="1270.4464"
         sodipodi:cx="810.80359"
         id="path13800"
         style="opacity:0.2;fill:#000000;fill-opacity:1;stroke:#000000;stroke-width:5;stroke-linecap:butt;stroke-linejoin:miter;stroke-miterlimit:4;stroke-opacity:1;stroke-dasharray:none;stroke-dashoffset:0"
         sodipodi:type="arc" />
      <path
         transform="matrix(1.3966292,0,0,0.16215081,-64.579999,1218.7689)"
         d="m 814.10716,1270.4464 a 3.3035715,3.125 0 1 1 -6.60714,0 3.3035715,3.125 0 1 1 6.60714,0 z"
         sodipodi:ry="3.125"
         sodipodi:rx="3.3035715"
         sodipodi:cy="1270.4464"
         sodipodi:cx="810.80359"
         id="path13802"
         style="opacity:0.2;fill:#000000;fill-opacity:1;stroke:#000000;stroke-width:5;stroke-linecap:butt;stroke-linejoin:miter;stroke-miterlimit:4;stroke-opacity:1;stroke-dasharray:none;stroke-dashoffset:0"
         sodipodi:type="arc" />
      <path
         sodipodi:type="arc"
         style="opacity:0.2;fill:#000000;fill-opacity:1;stroke:#000000;stroke-width:5;stroke-linecap:butt;stroke-linejoin:miter;stroke-miterlimit:4;stroke-opacity:1;stroke-dasharray:none;stroke-dashoffset:0"
         id="path13804"
         sodipodi:cx="810.80359"
         sodipodi:cy="1270.4464"
         sodipodi:rx="3.3035715"
         sodipodi:ry="3.125"
         d="m 814.10716,1270.4464 a 3.3035715,3.125 0 1 1 -6.60714,0 3.3035715,3.125 0 1 1 6.60714,0 z"
         transform="matrix(0.80873383,0,0,0.06985989,415.87575,1329.4536)" />
      <path
         sodipodi:type="arc"
         style="opacity:0.2;fill:#000000;fill-opacity:1;stroke:#000000;stroke-width:5;stroke-linecap:butt;stroke-linejoin:miter;stroke-miterlimit:4;stroke-opacity:1;stroke-dasharray:none;stroke-dashoffset:0"
         id="path13806"
         sodipodi:cx="810.80359"
         sodipodi:cy="1270.4464"
         sodipodi:rx="3.3035715"
         sodipodi:ry="3.125"
         d="m 814.10716,1270.4464 a 3.3035715,3.125 0 1 1 -6.60714,0 3.3035715,3.125 0 1 1 6.60714,0 z"
         transform="matrix(1.3966292,0,0,0.16215081,-41.34649,1218.7689)" />
      <path
         transform="matrix(0.80873383,0,0,0.06985989,439.10926,1329.4536)"
         d="m 814.10716,1270.4464 a 3.3035715,3.125 0 1 1 -6.60714,0 3.3035715,3.125 0 1 1 6.60714,0 z"
         sodipodi:ry="3.125"
         sodipodi:rx="3.3035715"
         sodipodi:cy="1270.4464"
         sodipodi:cx="810.80359"
         id="path13808"
         style="opacity:0.2;fill:#000000;fill-opacity:1;stroke:#000000;stroke-width:5;stroke-linecap:butt;stroke-linejoin:miter;stroke-miterlimit:4;stroke-opacity:1;stroke-dasharray:none;stroke-dashoffset:0"
         sodipodi:type="arc" />
      <path
         transform="translate(0,152.36218)"
         inkscape:connector-curvature="0"
         id="path13814"
         d="m 799.91455,1276.5344 -0.37881,37.3756"
         style="opacity:0.2;fill:none;stroke:#000000;stroke-width:1px;stroke-linecap:butt;stroke-linejoin:miter;stroke-opacity:1" />
      <path
         style="opacity:0.2;fill:none;stroke:#000000;stroke-width:1px;stroke-linecap:butt;stroke-linejoin:miter;stroke-opacity:1"
         d="m 821.50656,1428.8966 -0.37881,37.3756"
         id="path13816"
         inkscape:connector-curvature="0" />
      <path
         inkscape:connector-curvature="0"
         id="path13818"
         d="m 843.47738,1428.8966 -0.37881,37.3756"
         style="opacity:0.2;fill:none;stroke:#000000;stroke-width:1px;stroke-linecap:butt;stroke-linejoin:miter;stroke-opacity:1" />
      <path
         style="opacity:0.2;fill:none;stroke:#000000;stroke-width:1px;stroke-linecap:butt;stroke-linejoin:miter;stroke-opacity:1"
         d="m 867.4685,1428.8966 -0.37881,37.3756"
         id="path13820"
         inkscape:connector-curvature="0" />
      <path
         inkscape:connector-curvature="0"
         id="path13822"
         d="m 891.9647,1428.8966 -0.37881,37.3756"
         style="opacity:0.2;fill:none;stroke:#000000;stroke-width:1px;stroke-linecap:butt;stroke-linejoin:miter;stroke-opacity:1" />
      <path
         style="opacity:0.2;fill:none;stroke:#000000;stroke-width:1px;stroke-linecap:butt;stroke-linejoin:miter;stroke-opacity:1"
         d="m 914.18806,1428.8966 -0.37881,37.3756"
         id="path13824"
         inkscape:connector-curvature="0" />
      <path
         inkscape:connector-curvature="0"
         id="path13826"
         d="m 936.66395,1428.8966 -0.37881,37.3756"
         style="opacity:0.2;fill:none;stroke:#000000;stroke-width:1px;stroke-linecap:butt;stroke-linejoin:miter;stroke-opacity:1" />
      <path
         style="opacity:0.2;fill:none;stroke:#000000;stroke-width:1px;stroke-linecap:butt;stroke-linejoin:miter;stroke-opacity:1"
         d="m 962.29657,1428.8966 -0.37881,37.3756"
         id="path13828"
         inkscape:connector-curvature="0" />
      <path
         inkscape:connector-curvature="0"
         id="path13830"
         d="m 985.65635,1428.8966 -0.37881,37.3756"
         style="opacity:0.2;fill:none;stroke:#000000;stroke-width:1px;stroke-linecap:butt;stroke-linejoin:miter;stroke-opacity:1" />
      <path
         style="opacity:0.2;fill:none;stroke:#000000;stroke-width:1px;stroke-linecap:butt;stroke-linejoin:miter;stroke-opacity:1"
         d="m 1008.1322,1428.8966 -0.3788,37.3756"
         id="path13832"
         inkscape:connector-curvature="0" />
      <path
         inkscape:connector-curvature="0"
         id="path13834"
         d="m 1032.2496,1428.8966 -0.3788,37.3756"
         style="opacity:0.2;fill:none;stroke:#000000;stroke-width:1px;stroke-linecap:butt;stroke-linejoin:miter;stroke-opacity:1" />
      <path
         style="opacity:0.2;fill:none;stroke:#000000;stroke-width:1px;stroke-linecap:butt;stroke-linejoin:miter;stroke-opacity:1"
         d="m 1053.7153,1428.8966 -0.3788,37.3756"
         id="path13836"
         inkscape:connector-curvature="0" />
      <path
         inkscape:connector-curvature="0"
         id="path13838"
         d="m 1076.9488,1428.8966 -0.3788,37.3756"
         style="opacity:0.2;fill:none;stroke:#000000;stroke-width:1px;stroke-linecap:butt;stroke-linejoin:miter;stroke-opacity:1" />
      <path
         style="opacity:0.2;fill:none;stroke:#000000;stroke-width:1px;stroke-linecap:butt;stroke-linejoin:miter;stroke-opacity:1"
         d="m 1094.8059,1428.8966 -0.3788,37.3756"
         id="path13840"
         inkscape:connector-curvature="0" />
      <path
         inkscape:connector-curvature="0"
         id="path13842"
         d="m 1110.8773,1428.8966 -0.3788,37.3756"
         style="opacity:0.2;fill:none;stroke:#000000;stroke-width:1px;stroke-linecap:butt;stroke-linejoin:miter;stroke-opacity:1" />
    </g>
    <g
       transform="matrix(0.3753179,0,0,0.6257123,-166.72211,134.64665)"
       id="g7666">
      <path
         style="fill:#e7e2de;fill-opacity:1;stroke:#e7e2de;stroke-width:1px;stroke-linecap:butt;stroke-linejoin:miter;stroke-opacity:1"
         d="m 1121.2693,1277.292 c -112.2268,12.4844 -223.1559,12.1244 -332.84524,-0.5051 -3.97456,14.2812 -3.07793,26.3973 1.51523,36.8706 l 331.62591,0.056 c 5.3194,-12.7953 5.813,-23.6262 -0.2959,-36.4215 z"
         id="path7668"
         inkscape:connector-curvature="0"
         sodipodi:nodetypes="ccccc"
         transform="translate(0,152.36218)" />
      <path
         style="fill:#f9f9f9;stroke:#f9f9f9;stroke-width:1px;stroke-linecap:butt;stroke-linejoin:miter;stroke-opacity:1"
         d="m 788.03572,1275.8929 14.28571,-12.3215 c 102.47581,16.9922 206.78457,12.5454 311.78567,0 l 7.3215,13.2143 c -112.2774,11.3929 -223.64821,13.5409 -333.39288,-0.8928 z"
         id="path7670"
         inkscape:connector-curvature="0"
         transform="translate(0,152.36218)"
         sodipodi:nodetypes="ccccc" />
      <path
         sodipodi:type="arc"
         style="opacity:0.2;fill:#000000;fill-opacity:1;stroke:#000000;stroke-width:5;stroke-linecap:butt;stroke-linejoin:miter;stroke-miterlimit:4;stroke-opacity:1;stroke-dasharray:none;stroke-dashoffset:0"
         id="path7672"
         sodipodi:cx="810.80359"
         sodipodi:cy="1270.4464"
         sodipodi:rx="3.3035715"
         sodipodi:ry="3.125"
         d="m 814.10716,1270.4464 c 0,1.7259 -1.47906,3.125 -3.30357,3.125 -1.82451,0 -3.30357,-1.3991 -3.30357,-3.125 0,-1.7259 1.47906,-3.125 3.30357,-3.125 1.82451,0 3.30357,1.3991 3.30357,3.125 z"
         transform="matrix(1.3966292,0,0,0.16215081,-326.58833,1218.7689)" />
      <path
         transform="matrix(0.80873383,0,0,0.06985989,153.86742,1329.4536)"
         d="m 814.10716,1270.4464 c 0,1.7259 -1.47906,3.125 -3.30357,3.125 -1.82451,0 -3.30357,-1.3991 -3.30357,-3.125 0,-1.7259 1.47906,-3.125 3.30357,-3.125 1.82451,0 3.30357,1.3991 3.30357,3.125 z"
         sodipodi:ry="3.125"
         sodipodi:rx="3.3035715"
         sodipodi:cy="1270.4464"
         sodipodi:cx="810.80359"
         id="path7674"
         style="opacity:0.2;fill:#000000;fill-opacity:1;stroke:#000000;stroke-width:5;stroke-linecap:butt;stroke-linejoin:miter;stroke-miterlimit:4;stroke-opacity:1;stroke-dasharray:none;stroke-dashoffset:0"
         sodipodi:type="arc" />
      <path
         transform="matrix(1.3966292,0,0,0.16215081,-304.87005,1220.7869)"
         d="m 814.10716,1270.4464 a 3.3035715,3.125 0 1 1 -6.60714,0 3.3035715,3.125 0 1 1 6.60714,0 z"
         sodipodi:ry="3.125"
         sodipodi:rx="3.3035715"
         sodipodi:cy="1270.4464"
         sodipodi:cx="810.80359"
         id="path7676"
         style="opacity:0.2;fill:#000000;fill-opacity:1;stroke:#000000;stroke-width:5;stroke-linecap:butt;stroke-linejoin:miter;stroke-miterlimit:4;stroke-opacity:1;stroke-dasharray:none;stroke-dashoffset:0"
         sodipodi:type="arc" />
      <path
         sodipodi:type="arc"
         style="opacity:0.2;fill:#000000;fill-opacity:1;stroke:#000000;stroke-width:5;stroke-linecap:butt;stroke-linejoin:miter;stroke-miterlimit:4;stroke-opacity:1;stroke-dasharray:none;stroke-dashoffset:0"
         id="path7678"
         sodipodi:cx="810.80359"
         sodipodi:cy="1270.4464"
         sodipodi:rx="3.3035715"
         sodipodi:ry="3.125"
         d="m 814.10716,1270.4464 a 3.3035715,3.125 0 1 1 -6.60714,0 3.3035715,3.125 0 1 1 6.60714,0 z"
         transform="matrix(0.80873383,0,0,0.06985989,175.5857,1331.4716)" />
      <path
         sodipodi:type="arc"
         style="opacity:0.2;fill:#000000;fill-opacity:1;stroke:#000000;stroke-width:5;stroke-linecap:butt;stroke-linejoin:miter;stroke-miterlimit:4;stroke-opacity:1;stroke-dasharray:none;stroke-dashoffset:0"
         id="path7680"
         sodipodi:cx="810.80359"
         sodipodi:cy="1270.4464"
         sodipodi:rx="3.3035715"
         sodipodi:ry="3.125"
         d="m 814.10716,1270.4464 a 3.3035715,3.125 0 1 1 -6.60714,0 3.3035715,3.125 0 1 1 6.60714,0 z"
         transform="matrix(1.3966292,0,0,0.16215081,-284.28819,1223.2085)" />
      <path
         transform="matrix(0.80873383,0,0,0.06985989,196.16756,1333.8932)"
         d="m 814.10716,1270.4464 a 3.3035715,3.125 0 1 1 -6.60714,0 3.3035715,3.125 0 1 1 6.60714,0 z"
         sodipodi:ry="3.125"
         sodipodi:rx="3.3035715"
         sodipodi:cy="1270.4464"
         sodipodi:cx="810.80359"
         id="path7682"
         style="opacity:0.2;fill:#000000;fill-opacity:1;stroke:#000000;stroke-width:5;stroke-linecap:butt;stroke-linejoin:miter;stroke-miterlimit:4;stroke-opacity:1;stroke-dasharray:none;stroke-dashoffset:0"
         sodipodi:type="arc" />
      <path
         transform="matrix(1.3966292,0,0,0.16215081,-265.22156,1226.2355)"
         d="m 814.10716,1270.4464 a 3.3035715,3.125 0 1 1 -6.60714,0 3.3035715,3.125 0 1 1 6.60714,0 z"
         sodipodi:ry="3.125"
         sodipodi:rx="3.3035715"
         sodipodi:cy="1270.4464"
         sodipodi:cx="810.80359"
         id="path7684"
         style="opacity:0.2;fill:#000000;fill-opacity:1;stroke:#000000;stroke-width:5;stroke-linecap:butt;stroke-linejoin:miter;stroke-miterlimit:4;stroke-opacity:1;stroke-dasharray:none;stroke-dashoffset:0"
         sodipodi:type="arc" />
      <path
         sodipodi:type="arc"
         style="opacity:0.2;fill:#000000;fill-opacity:1;stroke:#000000;stroke-width:5;stroke-linecap:butt;stroke-linejoin:miter;stroke-miterlimit:4;stroke-opacity:1;stroke-dasharray:none;stroke-dashoffset:0"
         id="path7686"
         sodipodi:cx="810.80359"
         sodipodi:cy="1270.4464"
         sodipodi:rx="3.3035715"
         sodipodi:ry="3.125"
         d="m 814.10716,1270.4464 a 3.3035715,3.125 0 1 1 -6.60714,0 3.3035715,3.125 0 1 1 6.60714,0 z"
         transform="matrix(0.80873383,0,0,0.06985989,215.23419,1336.9202)" />
      <path
         sodipodi:type="arc"
         style="opacity:0.2;fill:#000000;fill-opacity:1;stroke:#000000;stroke-width:5;stroke-linecap:butt;stroke-linejoin:miter;stroke-miterlimit:4;stroke-opacity:1;stroke-dasharray:none;stroke-dashoffset:0"
         id="path7688"
         sodipodi:cx="810.80359"
         sodipodi:cy="1270.4464"
         sodipodi:rx="3.3035715"
         sodipodi:ry="3.125"
         d="m 814.10716,1270.4464 a 3.3035715,3.125 0 1 1 -6.60714,0 3.3035715,3.125 0 1 1 6.60714,0 z"
         transform="matrix(1.3966292,0,0,0.16215081,-244.26089,1227.8499)" />
      <path
         transform="matrix(0.80873383,0,0,0.06985989,236.19486,1338.5346)"
         d="m 814.10716,1270.4464 a 3.3035715,3.125 0 1 1 -6.60714,0 3.3035715,3.125 0 1 1 6.60714,0 z"
         sodipodi:ry="3.125"
         sodipodi:rx="3.3035715"
         sodipodi:cy="1270.4464"
         sodipodi:cx="810.80359"
         id="path7690"
         style="opacity:0.2;fill:#000000;fill-opacity:1;stroke:#000000;stroke-width:5;stroke-linecap:butt;stroke-linejoin:miter;stroke-miterlimit:4;stroke-opacity:1;stroke-dasharray:none;stroke-dashoffset:0"
         sodipodi:type="arc" />
      <path
         transform="matrix(1.3966292,0,0,0.16215081,-225.06799,1228.6571)"
         d="m 814.10716,1270.4464 a 3.3035715,3.125 0 1 1 -6.60714,0 3.3035715,3.125 0 1 1 6.60714,0 z"
         sodipodi:ry="3.125"
         sodipodi:rx="3.3035715"
         sodipodi:cy="1270.4464"
         sodipodi:cx="810.80359"
         id="path7692"
         style="opacity:0.2;fill:#000000;fill-opacity:1;stroke:#000000;stroke-width:5;stroke-linecap:butt;stroke-linejoin:miter;stroke-miterlimit:4;stroke-opacity:1;stroke-dasharray:none;stroke-dashoffset:0"
         sodipodi:type="arc" />
      <path
         sodipodi:type="arc"
         style="opacity:0.2;fill:#000000;fill-opacity:1;stroke:#000000;stroke-width:5;stroke-linecap:butt;stroke-linejoin:miter;stroke-miterlimit:4;stroke-opacity:1;stroke-dasharray:none;stroke-dashoffset:0"
         id="path7694"
         sodipodi:cx="810.80359"
         sodipodi:cy="1270.4464"
         sodipodi:rx="3.3035715"
         sodipodi:ry="3.125"
         d="m 814.10716,1270.4464 a 3.3035715,3.125 0 1 1 -6.60714,0 3.3035715,3.125 0 1 1 6.60714,0 z"
         transform="matrix(0.80873383,0,0,0.06985989,255.38776,1339.3418)" />
      <path
         sodipodi:type="arc"
         style="opacity:0.2;fill:#000000;fill-opacity:1;stroke:#000000;stroke-width:5;stroke-linecap:butt;stroke-linejoin:miter;stroke-miterlimit:4;stroke-opacity:1;stroke-dasharray:none;stroke-dashoffset:0"
         id="path7696"
         sodipodi:cx="810.80359"
         sodipodi:cy="1270.4464"
         sodipodi:rx="3.3035715"
         sodipodi:ry="3.125"
         d="m 814.10716,1270.4464 a 3.3035715,3.125 0 1 1 -6.60714,0 3.3035715,3.125 0 1 1 6.60714,0 z"
         transform="matrix(1.3966292,0,0,0.16215081,-202.46497,1228.6571)" />
      <path
         transform="matrix(0.80873383,0,0,0.06985989,277.99078,1339.3418)"
         d="m 814.10716,1270.4464 a 3.3035715,3.125 0 1 1 -6.60714,0 3.3035715,3.125 0 1 1 6.60714,0 z"
         sodipodi:ry="3.125"
         sodipodi:rx="3.3035715"
         sodipodi:cy="1270.4464"
         sodipodi:cx="810.80359"
         id="path7698"
         style="opacity:0.2;fill:#000000;fill-opacity:1;stroke:#000000;stroke-width:5;stroke-linecap:butt;stroke-linejoin:miter;stroke-miterlimit:4;stroke-opacity:1;stroke-dasharray:none;stroke-dashoffset:0"
         sodipodi:type="arc" />
      <path
         transform="matrix(1.3966292,0,0,0.16215081,-182.767,1228.6571)"
         d="m 814.10716,1270.4464 a 3.3035715,3.125 0 1 1 -6.60714,0 3.3035715,3.125 0 1 1 6.60714,0 z"
         sodipodi:ry="3.125"
         sodipodi:rx="3.3035715"
         sodipodi:cy="1270.4464"
         sodipodi:cx="810.80359"
         id="path7700"
         style="opacity:0.2;fill:#000000;fill-opacity:1;stroke:#000000;stroke-width:5;stroke-linecap:butt;stroke-linejoin:miter;stroke-miterlimit:4;stroke-opacity:1;stroke-dasharray:none;stroke-dashoffset:0"
         sodipodi:type="arc" />
      <path
         sodipodi:type="arc"
         style="opacity:0.2;fill:#000000;fill-opacity:1;stroke:#000000;stroke-width:5;stroke-linecap:butt;stroke-linejoin:miter;stroke-miterlimit:4;stroke-opacity:1;stroke-dasharray:none;stroke-dashoffset:0"
         id="path7702"
         sodipodi:cx="810.80359"
         sodipodi:cy="1270.4464"
         sodipodi:rx="3.3035715"
         sodipodi:ry="3.125"
         d="m 814.10716,1270.4464 a 3.3035715,3.125 0 1 1 -6.60714,0 3.3035715,3.125 0 1 1 6.60714,0 z"
         transform="matrix(0.80873383,0,0,0.06985989,297.68875,1339.3418)" />
      <path
         sodipodi:type="arc"
         style="opacity:0.2;fill:#000000;fill-opacity:1;stroke:#000000;stroke-width:5;stroke-linecap:butt;stroke-linejoin:miter;stroke-miterlimit:4;stroke-opacity:1;stroke-dasharray:none;stroke-dashoffset:0"
         id="path7704"
         sodipodi:cx="810.80359"
         sodipodi:cy="1270.4464"
         sodipodi:rx="3.3035715"
         sodipodi:ry="3.125"
         d="m 814.10716,1270.4464 a 3.3035715,3.125 0 1 1 -6.60714,0 3.3035715,3.125 0 1 1 6.60714,0 z"
         transform="matrix(1.3966292,0,0,0.16215081,-162.05887,1228.6571)" />
      <path
         transform="matrix(0.80873383,0,0,0.06985989,318.39688,1339.3418)"
         d="m 814.10716,1270.4464 a 3.3035715,3.125 0 1 1 -6.60714,0 3.3035715,3.125 0 1 1 6.60714,0 z"
         sodipodi:ry="3.125"
         sodipodi:rx="3.3035715"
         sodipodi:cy="1270.4464"
         sodipodi:cx="810.80359"
         id="path7706"
         style="opacity:0.2;fill:#000000;fill-opacity:1;stroke:#000000;stroke-width:5;stroke-linecap:butt;stroke-linejoin:miter;stroke-miterlimit:4;stroke-opacity:1;stroke-dasharray:none;stroke-dashoffset:0"
         sodipodi:type="arc" />
      <path
         transform="matrix(1.3966292,0,0,0.16215081,-137.56267,1228.6571)"
         d="m 814.10716,1270.4464 a 3.3035715,3.125 0 1 1 -6.60714,0 3.3035715,3.125 0 1 1 6.60714,0 z"
         sodipodi:ry="3.125"
         sodipodi:rx="3.3035715"
         sodipodi:cy="1270.4464"
         sodipodi:cx="810.80359"
         id="path7708"
         style="opacity:0.2;fill:#000000;fill-opacity:1;stroke:#000000;stroke-width:5;stroke-linecap:butt;stroke-linejoin:miter;stroke-miterlimit:4;stroke-opacity:1;stroke-dasharray:none;stroke-dashoffset:0"
         sodipodi:type="arc" />
      <path
         sodipodi:type="arc"
         style="opacity:0.2;fill:#000000;fill-opacity:1;stroke:#000000;stroke-width:5;stroke-linecap:butt;stroke-linejoin:miter;stroke-miterlimit:4;stroke-opacity:1;stroke-dasharray:none;stroke-dashoffset:0"
         id="path7710"
         sodipodi:cx="810.80359"
         sodipodi:cy="1270.4464"
         sodipodi:rx="3.3035715"
         sodipodi:ry="3.125"
         d="m 814.10716,1270.4464 a 3.3035715,3.125 0 1 1 -6.60714,0 3.3035715,3.125 0 1 1 6.60714,0 z"
         transform="matrix(0.80873383,0,0,0.06985989,342.89308,1339.3418)" />
      <path
         sodipodi:type="arc"
         style="opacity:0.2;fill:#000000;fill-opacity:1;stroke:#000000;stroke-width:5;stroke-linecap:butt;stroke-linejoin:miter;stroke-miterlimit:4;stroke-opacity:1;stroke-dasharray:none;stroke-dashoffset:0"
         id="path7712"
         sodipodi:cx="810.80359"
         sodipodi:cy="1270.4464"
         sodipodi:rx="3.3035715"
         sodipodi:ry="3.125"
         d="m 814.10716,1270.4464 a 3.3035715,3.125 0 1 1 -6.60714,0 3.3035715,3.125 0 1 1 6.60714,0 z"
         transform="matrix(1.3966292,0,0,0.16215081,-114.58255,1227.0427)" />
      <path
         transform="matrix(0.80873383,0,0,0.06985989,365.8732,1337.7274)"
         d="m 814.10716,1270.4464 a 3.3035715,3.125 0 1 1 -6.60714,0 3.3035715,3.125 0 1 1 6.60714,0 z"
         sodipodi:ry="3.125"
         sodipodi:rx="3.3035715"
         sodipodi:cy="1270.4464"
         sodipodi:cx="810.80359"
         id="path7714"
         style="opacity:0.2;fill:#000000;fill-opacity:1;stroke:#000000;stroke-width:5;stroke-linecap:butt;stroke-linejoin:miter;stroke-miterlimit:4;stroke-opacity:1;stroke-dasharray:none;stroke-dashoffset:0"
         sodipodi:type="arc" />
      <path
         transform="matrix(1.3966292,0,0,0.16215081,-88.066046,1223.2085)"
         d="m 814.10716,1270.4464 a 3.3035715,3.125 0 1 1 -6.60714,0 3.3035715,3.125 0 1 1 6.60714,0 z"
         sodipodi:ry="3.125"
         sodipodi:rx="3.3035715"
         sodipodi:cy="1270.4464"
         sodipodi:cx="810.80359"
         id="path7716"
         style="opacity:0.2;fill:#000000;fill-opacity:1;stroke:#000000;stroke-width:5;stroke-linecap:butt;stroke-linejoin:miter;stroke-miterlimit:4;stroke-opacity:1;stroke-dasharray:none;stroke-dashoffset:0"
         sodipodi:type="arc" />
      <path
         sodipodi:type="arc"
         style="opacity:0.2;fill:#000000;fill-opacity:1;stroke:#000000;stroke-width:5;stroke-linecap:butt;stroke-linejoin:miter;stroke-miterlimit:4;stroke-opacity:1;stroke-dasharray:none;stroke-dashoffset:0"
         id="path7718"
         sodipodi:cx="810.80359"
         sodipodi:cy="1270.4464"
         sodipodi:rx="3.3035715"
         sodipodi:ry="3.125"
         d="m 814.10716,1270.4464 a 3.3035715,3.125 0 1 1 -6.60714,0 3.3035715,3.125 0 1 1 6.60714,0 z"
         transform="matrix(0.80873383,0,0,0.06985989,392.3897,1333.8932)" />
      <path
         sodipodi:type="arc"
         style="opacity:0.2;fill:#000000;fill-opacity:1;stroke:#000000;stroke-width:5;stroke-linecap:butt;stroke-linejoin:miter;stroke-miterlimit:4;stroke-opacity:1;stroke-dasharray:none;stroke-dashoffset:0"
         id="path7720"
         sodipodi:cx="810.80359"
         sodipodi:cy="1270.4464"
         sodipodi:rx="3.3035715"
         sodipodi:ry="3.125"
         d="m 814.10716,1270.4464 a 3.3035715,3.125 0 1 1 -6.60714,0 3.3035715,3.125 0 1 1 6.60714,0 z"
         transform="matrix(1.3966292,0,0,0.16215081,-64.579999,1220.7869)" />
      <path
         transform="matrix(0.80873383,0,0,0.06985989,415.87575,1331.4716)"
         d="m 814.10716,1270.4464 a 3.3035715,3.125 0 1 1 -6.60714,0 3.3035715,3.125 0 1 1 6.60714,0 z"
         sodipodi:ry="3.125"
         sodipodi:rx="3.3035715"
         sodipodi:cy="1270.4464"
         sodipodi:cx="810.80359"
         id="path7722"
         style="opacity:0.2;fill:#000000;fill-opacity:1;stroke:#000000;stroke-width:5;stroke-linecap:butt;stroke-linejoin:miter;stroke-miterlimit:4;stroke-opacity:1;stroke-dasharray:none;stroke-dashoffset:0"
         sodipodi:type="arc" />
      <path
         transform="matrix(1.3966292,0,0,0.16215081,-41.34649,1218.7689)"
         d="m 814.10716,1270.4464 c 0,1.7259 -1.47906,3.125 -3.30357,3.125 -1.82451,0 -3.30357,-1.3991 -3.30357,-3.125 0,-1.7259 1.47906,-3.125 3.30357,-3.125 1.82451,0 3.30357,1.3991 3.30357,3.125 z"
         sodipodi:ry="3.125"
         sodipodi:rx="3.3035715"
         sodipodi:cy="1270.4464"
         sodipodi:cx="810.80359"
         id="path7724"
         style="opacity:0.2;fill:#000000;fill-opacity:1;stroke:#000000;stroke-width:5;stroke-linecap:butt;stroke-linejoin:miter;stroke-miterlimit:4;stroke-opacity:1;stroke-dasharray:none;stroke-dashoffset:0"
         sodipodi:type="arc" />
      <path
         sodipodi:type="arc"
         style="opacity:0.2;fill:#000000;fill-opacity:1;stroke:#000000;stroke-width:5;stroke-linecap:butt;stroke-linejoin:miter;stroke-miterlimit:4;stroke-opacity:1;stroke-dasharray:none;stroke-dashoffset:0"
         id="path7726"
         sodipodi:cx="810.80359"
         sodipodi:cy="1270.4464"
         sodipodi:rx="3.3035715"
         sodipodi:ry="3.125"
         d="m 814.10716,1270.4464 c 0,1.7259 -1.47906,3.125 -3.30357,3.125 -1.82451,0 -3.30357,-1.3991 -3.30357,-3.125 0,-1.7259 1.47906,-3.125 3.30357,-3.125 1.82451,0 3.30357,1.3991 3.30357,3.125 z"
         transform="matrix(0.80873383,0,0,0.06985989,439.10926,1329.4536)" />
      <path
         style="opacity:0.2;fill:none;stroke:#000000;stroke-width:1px;stroke-linecap:butt;stroke-linejoin:miter;stroke-opacity:1"
         d="m 799.91455,1276.5344 -0.37881,37.3756"
         id="path7728"
         inkscape:connector-curvature="0"
         transform="translate(0,152.36218)" />
      <path
         inkscape:connector-curvature="0"
         id="path7730"
         d="m 821.52496,1434.1324 -0.41561,32.1508"
         style="opacity:0.2;fill:none;stroke:#000000;stroke-width:0.97149199px;stroke-linecap:butt;stroke-linejoin:miter;stroke-opacity:1" />
      <path
         style="opacity:0.2;fill:none;stroke:#000000;stroke-width:0.97027767px;stroke-linecap:butt;stroke-linejoin:miter;stroke-opacity:1"
         d="m 843.49657,1434.3337 -0.41719,31.95"
         id="path7732"
         inkscape:connector-curvature="0" />
      <path
         inkscape:connector-curvature="0"
         id="path7734"
         d="m 867.49419,1435.9442 -0.43019,30.3434"
         style="opacity:0.2;fill:none;stroke:#000000;stroke-width:0.96020037px;stroke-linecap:butt;stroke-linejoin:miter;stroke-opacity:1" />
      <path
         style="opacity:0.2;fill:none;stroke:#000000;stroke-width:0.94802946px;stroke-linecap:butt;stroke-linejoin:miter;stroke-opacity:1"
         d="m 891.99825,1437.7557 -0.44591,28.5366"
         id="path7736"
         inkscape:connector-curvature="0" />
      <path
         inkscape:connector-curvature="0"
         id="path7738"
         d="m 914.22531,1438.5607 -0.45331,27.7338"
         style="opacity:0.2;fill:none;stroke:#000000;stroke-width:0.94230866px;stroke-linecap:butt;stroke-linejoin:miter;stroke-opacity:1" />
      <path
         style="opacity:0.2;fill:none;stroke:#000000;stroke-width:0.94084656px;stroke-linecap:butt;stroke-linejoin:miter;stroke-opacity:1"
         d="m 936.70214,1438.7619 -0.45519,27.5332"
         id="path7740"
         inkscape:connector-curvature="0" />
      <path
         inkscape:connector-curvature="0"
         id="path7742"
         d="m 962.33571,1438.9631 -0.45709,27.3326"
         style="opacity:0.2;fill:none;stroke:#000000;stroke-width:0.93937129px;stroke-linecap:butt;stroke-linejoin:miter;stroke-opacity:1" />
      <path
         style="opacity:0.2;fill:none;stroke:#000000;stroke-width:0.94802946px;stroke-linecap:butt;stroke-linejoin:miter;stroke-opacity:1"
         d="m 985.6899,1437.7557 -0.44591,28.5366"
         id="path7744"
         inkscape:connector-curvature="0" />
      <path
         inkscape:connector-curvature="0"
         id="path7746"
         d="m 1008.1685,1438.3594 -0.4514,27.9346"
         style="opacity:0.2;fill:none;stroke:#000000;stroke-width:0.94375873px;stroke-linecap:butt;stroke-linejoin:miter;stroke-opacity:1" />
      <path
         style="opacity:0.2;fill:none;stroke:#000000;stroke-width:0.95490664px;stroke-linecap:butt;stroke-linejoin:miter;stroke-opacity:1"
         d="m 1032.2787,1436.7494 -0.437,29.5403"
         id="path7748"
         inkscape:connector-curvature="0" />
      <path
         inkscape:connector-curvature="0"
         id="path7750"
         d="m 1053.7369,1434.9377 -0.422,31.3474"
         style="opacity:0.2;fill:none;stroke:#000000;stroke-width:0.96657598px;stroke-linecap:butt;stroke-linejoin:miter;stroke-opacity:1" />
      <path
         style="opacity:0.2;fill:none;stroke:#000000;stroke-width:0.97742188px;stroke-linecap:butt;stroke-linejoin:miter;stroke-opacity:1"
         d="m 1076.9634,1433.1257 -0.408,33.1552"
         id="path7752"
         inkscape:connector-curvature="0" />
      <path
         inkscape:connector-curvature="0"
         id="path7754"
         d="m 1094.8154,1431.7161 -0.3978,34.5618"
         style="opacity:0.2;fill:none;stroke:#000000;stroke-width:0.98534536px;stroke-linecap:butt;stroke-linejoin:miter;stroke-opacity:1" />
      <path
         style="opacity:0.2;fill:none;stroke:#000000;stroke-width:1.14831638px;stroke-linecap:butt;stroke-linejoin:miter;stroke-opacity:1"
         d="m 1111.118,1430.5684 -0.5237,35.6464"
         id="path7756"
         inkscape:connector-curvature="0" />
    </g>
  </g>
</svg>
