<?xml version="1.0" encoding="UTF-8" standalone="no"?>
<!-- Created with Inkscape (http://www.inkscape.org/) -->

<svg
   xmlns:dc="http://purl.org/dc/elements/1.1/"
   xmlns:cc="http://creativecommons.org/ns#"
   xmlns:rdf="http://www.w3.org/1999/02/22-rdf-syntax-ns#"
   xmlns:svg="http://www.w3.org/2000/svg"
   xmlns="http://www.w3.org/2000/svg"
   xmlns:sodipodi="http://sodipodi.sourceforge.net/DTD/sodipodi-0.dtd"
   xmlns:inkscape="http://www.inkscape.org/namespaces/inkscape"
   width="256"
   height="128"
   id="svg8046"
   version="1.1"
   inkscape:version="0.48.4 r9939"
   sodipodi:docname="New document 14">
  <defs
     id="defs8048">
    <inkscape:path-effect
       effect="bend_path"
       id="path-effect6071"
       is_visible="true"
       bendpath="m 1478.5016,666.62282 c -27.8368,-483.51472 907.9054,-453.45132 919.9072,0"
       prop_scale="1"
       scale_y_rel="true"
       vertical="false"
       bendpath-nodetypes="cc" />
  </defs>
  <sodipodi:namedview
     id="base"
     pagecolor="#ffffff"
     bordercolor="#666666"
     borderopacity="1.0"
     inkscape:pageopacity="0.0"
     inkscape:pageshadow="2"
     inkscape:zoom="2.8"
     inkscape:cx="158.76465"
     inkscape:cy="89.724463"
     inkscape:document-units="px"
     inkscape:current-layer="layer1"
     showgrid="false"
     inkscape:window-width="1600"
     inkscape:window-height="845"
     inkscape:window-x="0"
     inkscape:window-y="0"
     inkscape:window-maximized="1" />
  <metadata
     id="metadata8051">
    <rdf:RDF>
      <cc:Work
         rdf:about="">
        <dc:format>image/svg+xml</dc:format>
        <dc:type
           rdf:resource="http://purl.org/dc/dcmitype/StillImage" />
        <dc:title></dc:title>
      </cc:Work>
    </rdf:RDF>
  </metadata>
  <g
     inkscape:label="Layer 1"
     inkscape:groupmode="layer"
     id="layer1"
     transform="translate(0,-924.36218)">
    <g
       id="g6064"
       inkscape:path-effect="#path-effect6071"
       transform="matrix(0.23051271,0,0,0.28343038,-318.8754,865.13403)"
       inkscape:export-filename="/home/jvhoof/Documents/Game Design/concept.png"
       inkscape:export-xdpi="90"
       inkscape:export-ydpi="90">
      <path
         id="rect5192"
         d="m 1384.9686,672.00768 c -2.1568,-35.42087 0.013,-71.98566 7.3316,-108.69538 6.7563,-33.43186 18.0987,-66.0977 33.9488,-96.99653 15.3619,-29.71149 34.4168,-56.91783 56.4337,-81.09298 0,-2e-5 10e-5,-3e-5 10e-5,-4e-5 22.2374,-24.35519 46.8017,-45.4934 72.8335,-63.40543 0,-10e-6 0,-3e-5 0,-4e-5 26.9496,-18.55708 55.1502,-33.99134 83.9148,-46.55808 29.9759,-13.1212 60.5638,-23.48473 91.2892,-31.38687 0,0 0,-1e-5 0,-1e-5 64.2507,-16.4833 129.7706,-23.45183 194.3131,-22.28731 65.4971,1.01054 131.1632,10.2208 194.9951,28.07034 31.1266,8.70349 61.9714,19.65074 92.1504,33.03662 29.1917,12.92838 57.8126,28.3788 85.3096,46.567 26.5326,17.52827 51.9039,37.90925 75.37,61.23724 0,2e-5 0,4e-5 0,6e-5 22.9012,22.76939 43.5645,48.4977 61.1839,76.93567 17.6884,28.6612 31.6785,59.64723 41.4857,92.22223 10.2512,34.41877 15.6697,69.58345 16.5357,104.48982 l -37.9305,1.00393 c -0.8056,-31.73626 -5.6947,-63.6 -14.9477,-94.58698 -8.8219,-29.33389 -21.4639,-57.31763 -37.4415,-83.21539 -10e-5,-2e-5 -10e-5,-4e-5 -10e-5,-6e-5 -15.9118,-25.72483 -34.7441,-49.13922 -55.6908,-69.99392 0,-2e-5 -10e-5,-3e-5 -10e-5,-5e-5 -21.4776,-21.38143 -44.9058,-40.17468 -69.5409,-56.47406 -25.5417,-16.91281 -52.3076,-31.34501 -79.7446,-43.51234 0,-10e-6 0,-2e-5 0,-3e-5 -28.3696,-12.59295 -57.4925,-22.9198 -86.9849,-31.1754 -60.5254,-16.94317 -122.9811,-25.68526 -185.364,-26.66583 -61.4787,-1.06674 -123.6282,5.5009 -184.2018,21.08467 0,1e-5 -10e-5,1e-5 -10e-5,2e-5 -28.9424,7.45768 -57.6096,17.15598 -85.527,29.39118 -26.7806,11.72257 -52.8733,25.97931 -77.5911,43.02551 0,1e-5 -10e-5,3e-5 -10e-5,4e-5 -23.8593,16.44633 -46.2558,35.68627 -66.33,57.7106 0,2e-5 0,4e-5 0,6e-5 -19.8662,21.83258 -37.0381,46.3243 -50.7848,72.94912 -14.2089,27.66501 -24.4014,57.05857 -30.499,87.17972 -6.6408,33.09885 -8.5786,66.41918 -6.6351,98.96202 z"
         style="fill:#ff2a2a;fill-opacity:1;stroke:#ff2a2a;stroke-width:1.68762147;stroke-miterlimit:4;stroke-opacity:1;stroke-dashoffset:0"
         inkscape:original-d="m 1478.5016,600.12366 919.9072,0 0,26.93234 -919.9072,0 z"
         inkscape:connector-curvature="0" />
      <path
         id="rect5194"
         d="m 1421.9097,669.88092 c -1.9489,-32.61426 -0.01,-66.0151 6.6523,-99.20356 6.114,-30.20331 16.335,-59.67809 30.5847,-87.42335 13.7867,-26.70143 31.0053,-51.26052 50.9249,-73.15125 0,-10e-6 0,-2e-5 0,-3e-5 20.1279,-22.08217 42.5782,-41.36922 66.4914,-57.85193 0,-1e-5 10e-5,-2e-5 10e-5,-4e-5 24.7732,-17.08369 50.9182,-31.36965 77.748,-43.11317 27.9685,-12.25719 56.6834,-21.97201 85.6701,-29.44072 0,0 0,0 0,-10e-6 60.6649,-15.60609 122.898,-22.18368 184.4528,-21.11451 62.4602,0.98131 124.9955,9.73502 185.603,26.70068 29.5329,8.26672 58.6985,18.60896 87.113,31.22159 27.4806,12.18622 54.2925,26.6437 79.8827,43.58818 24.6822,16.32987 48.1587,35.16252 69.6856,56.59226 1e-4,2e-5 1e-4,4e-5 1e-4,5e-5 20.9952,20.90223 39.873,44.37407 55.8272,70.16626 16.0201,25.96633 28.6955,54.02458 37.5419,83.4389 9.2778,31.07215 14.18,63.0178 14.9871,94.83274 l -37.9306,1.00393 c -0.7465,-28.64483 -5.1195,-57.28953 -13.399,-84.92989 -7.8611,-26.17321 -19.1885,-51.22917 -33.4977,-74.43206 -1e-4,-2e-5 -1e-4,-4e-5 -1e-4,-6e-5 -14.2466,-23.07905 -31.2934,-44.23697 -50.3342,-63.22451 0,-10e-6 0,-3e-5 0,-5e-5 -19.5384,-19.48317 -41.0719,-36.72809 -63.8566,-51.82908 -23.6349,-15.66907 -48.5918,-29.10834 -74.3177,-40.53352 0,-1e-5 0,-2e-5 0,-3e-5 -26.6051,-11.81969 -54.0489,-21.54153 -81.9475,-29.36036 -57.3009,-16.05929 -116.6259,-24.34482 -175.9719,-25.29617 -58.491,-0.97139 -117.3537,5.20532 -174.3415,19.91188 0,0 -10e-5,1e-5 -10e-5,1e-5 -27.2037,7.02426 -53.9979,16.07385 -79.9078,27.44504 -24.8459,10.89935 -48.883,24.00778 -71.4245,39.58059 0,2e-5 0,3e-5 0,4e-5 -21.7408,15.01701 -42.0232,32.40578 -59.9879,52.1571 -10e-5,2e-5 -10e-5,4e-5 -10e-5,6e-5 -17.7688,19.54815 -33.1043,41.39262 -45.2759,65.00738 -12.6085,24.51143 -21.6796,50.71394 -27.1349,77.60653 -5.9799,29.57759 -7.6913,59.73398 -5.9558,89.4702 z"
         style="fill:#ff7f2a;fill-opacity:1;stroke:#ff7f2a;stroke-width:1.68762147;stroke-miterlimit:4;stroke-opacity:1;stroke-dashoffset:0"
         inkscape:original-d="m 1478.5016,626.38763 919.9072,0 0,26.93235 -919.9072,0 z"
         inkscape:connector-curvature="0" />
      <path
         id="rect5196"
         d="m 1457.4298,667.83596 c -1.7488,-29.91559 -0.023,-60.27419 5.9992,-90.07682 5.4964,-27.09894 14.6392,-53.50539 27.35,-78.21837 12.2722,-23.80715 27.7252,-45.82082 45.628,-65.51498 0,-10e-6 0,-10e-6 0,-2e-5 18.0995,-19.8966 38.5171,-37.40368 60.3932,-52.51204 1e-4,-1e-5 1e-4,-2e-5 1e-4,-3e-5 22.6805,-15.66698 46.8491,-28.84881 71.8186,-39.80077 26.0382,-11.42641 52.9521,-20.51747 80.267,-27.56942 0,-10e-6 0,-10e-6 0,-10e-6 57.217,-14.76262 116.2898,-20.96432 174.9717,-19.98683 59.5401,0.95321 119.0652,9.26792 176.5721,25.38371 28.0006,7.84674 55.5517,17.60724 82.2695,29.47636 25.8352,11.47262 50.9078,24.97535 74.6646,40.72393 22.9029,15.17758 44.5575,32.52145 64.2198,52.12594 0,2e-5 1e-4,4e-5 1e-4,5e-5 19.1626,19.10689 36.3235,40.40905 50.6766,63.65721 14.4158,23.37512 25.8273,48.61821 33.7497,74.99342 8.3418,27.85424 12.7477,56.70467 13.4981,85.54708 l -37.9306,1.00393 c -0.6899,-25.6723 -4.5664,-51.22179 -11.9099,-75.64424 -6.9372,-23.1341 -17.0006,-45.3749 -29.7057,-65.98657 0,-10e-6 0,-3e-5 0,-5e-5 -12.6455,-20.53504 -27.9754,-39.52328 -45.1836,-56.71548 0,-1e-5 0,-3e-5 0,-4e-5 -17.6738,-17.65793 -37.3854,-33.41407 -58.3908,-47.36277 -21.8015,-14.47318 -45.0191,-26.9577 -69.0996,-37.66928 0,0 0,-10e-6 -10e-5,-2e-5 -24.9083,-11.07618 -50.7376,-20.21627 -77.1039,-27.61514 -54.2004,-15.20941 -110.5151,-23.05595 -166.9409,-23.97919 -55.6182,-0.87971 -111.3206,4.92111 -164.8605,18.78419 0,0 -10e-5,1e-5 -10e-5,1e-5 -25.532,6.6075 -50.5251,15.03333 -74.5048,25.57375 -22.9855,10.10779 -45.0462,22.11209 -65.495,36.26819 0,1e-5 0,2e-5 0,3e-5 -19.7037,13.64266 -37.9534,29.25147 -53.8898,46.81721 0,10e-6 0,3e-5 0,4e-5 -15.752,17.35159 -29.322,36.65064 -39.9789,57.37112 -11.0697,21.47915 -19.0626,44.61333 -23.9003,68.40156 -5.3444,26.19176 -6.8381,53.3059 -5.3027,80.34346 z"
         style="fill:#ccff00;fill-opacity:1;stroke:#ccff00;stroke-width:1.68762147;stroke-miterlimit:4;stroke-opacity:1;stroke-dashoffset:0"
         inkscape:original-d="m 1478.5016,651.64142 919.9072,0 0,26.93234 -919.9072,0 z"
         inkscape:connector-curvature="0" />
      <path
         id="rect5198"
         d="m 1497.2124,665.5456 c -1.5247,-26.89309 -0.043,-53.84437 5.2678,-79.85488 4.8046,-23.62204 12.7397,-46.59196 23.727,-67.90879 10.5759,-20.56555 24.0513,-39.72834 39.6954,-56.96235 0,-10e-6 0,-10e-6 0,-2e-5 15.8278,-17.44874 33.9687,-32.96226 53.5633,-46.53135 0,-10e-6 10e-5,-2e-5 10e-5,-3e-5 20.3368,-14.08026 42.2916,-26.02546 65.1776,-36.09087 23.8763,-10.49595 48.773,-18.88839 74.2155,-25.47358 1e-4,0 1e-4,0 1e-4,0 53.3553,-13.81793 108.8885,-19.59863 164.3529,-18.72383 56.2696,0.92174 112.4231,8.74478 166.4575,23.90869 26.2843,7.37639 52.0271,16.48534 76.8447,27.52172 23.9924,10.67338 47.1169,23.10679 68.8202,37.51597 20.9102,13.88701 40.5242,29.56346 58.0983,47.12367 0,2e-5 0,3e-5 0,5e-5 17.1101,17.0961 32.3481,35.96821 44.9079,56.36708 12.6192,20.47295 22.6149,42.56305 29.5026,65.53446 7.2934,24.25019 11.1434,49.63398 11.8303,75.14716 l -37.9306,1.00393 c -0.6264,-22.34307 -3.947,-44.42592 -10.2422,-65.24432 -5.9024,-19.73029 -14.5501,-38.81811 -25.4585,-56.52761 0,-10e-6 0,-3e-5 0,-4e-5 -10.8522,-17.68575 -24.2592,-34.24395 -39.4149,-49.42537 0,-1e-5 0,-2e-5 0,-3e-5 -15.5855,-15.61365 -33.2565,-29.70237 -52.2692,-42.36049 -19.748,-13.13379 -41.0175,-24.54899 -63.2552,-34.46133 -1e-4,-10e-6 -1e-4,-10e-6 -1e-4,-2e-5 -23.0081,-10.24345 -47.0291,-18.73199 -71.6791,-25.66049 -50.7279,-14.25754 -103.671,-21.61241 -156.8263,-22.50418 -52.4007,-0.77702 -104.5635,4.60279 -154.2418,17.52119 0,0 0,0 0,10e-6 -23.6596,6.14073 -46.6356,13.86794 -68.4534,23.47789 -20.902,9.22125 -40.749,19.98892 -58.854,32.5583 0,10e-6 0,2e-5 0,3e-5 -17.4222,12.10339 -33.3953,25.71863 -47.0598,40.83652 0,10e-6 0,3e-5 -10e-5,4e-5 -13.4932,14.89143 -25.0856,31.33961 -34.0463,48.81849 -9.3462,18.083 -16.1314,37.78066 -20.2773,58.09199 -4.6328,22.39963 -5.8827,46.10646 -4.5713,70.12151 z"
         style="fill:#00aa44;fill-opacity:1;stroke:#00aa44;stroke-width:1.68762147;stroke-miterlimit:4;stroke-opacity:1;stroke-dashoffset:0"
         inkscape:original-d="m 1478.5016,679.92566 919.9072,0 0,26.93234 -919.9072,0 z"
         inkscape:connector-curvature="0" />
      <path
         id="rect5200"
         d="m 1534.1535,663.41884 c -1.3168,-24.08647 -0.061,-47.87382 4.5885,-70.36306 4.1623,-20.39349 10.976,-40.17235 20.3629,-58.3356 9.0008,-17.55549 20.6399,-34.07104 34.1866,-49.02061 0,-10e-6 0,-10e-6 0,-2e-5 13.7182,-15.17574 29.7451,-28.83809 47.2212,-40.97786 0,-1e-5 0,-1e-5 0,-2e-5 18.1604,-12.60687 38.0597,-23.40376 59.0109,-32.64596 21.8689,-9.63194 44.8926,-17.37566 68.5965,-23.52742 0,-1e-5 0,-1e-5 0,-1e-5 49.7695,-12.94071 102.0159,-18.33048 154.4926,-17.55103 53.2326,0.89251 106.2554,8.259 157.0654,22.53904 24.6906,6.93961 48.7542,15.44355 71.8073,25.70667 0,1e-5 0,2e-5 0,2e-5 22.2813,9.93123 43.5968,21.3717 63.3934,34.53713 19.0598,12.68862 36.779,26.81674 52.4138,42.4787 0,1e-5 0,2e-5 10e-5,4e-5 15.2041,15.22892 28.6565,31.84455 39.5511,49.59762 10e-5,2e-5 10e-5,3e-5 10e-5,5e-5 10.9508,17.77808 19.6319,36.9404 25.5588,56.75113 6.3199,20.90356 9.6537,43.06833 10.2816,65.49007 l -37.9305,1.00393 c -0.5675,-19.25164 -3.3719,-38.11545 -8.6936,-55.58723 -4.9416,-16.56961 -12.2747,-32.72965 -21.5147,-47.74428 0,-2e-5 0,-3e-5 0,-4e-5 -9.1871,-15.03998 -20.8085,-29.34173 -34.0582,-42.65599 -13.6464,-13.71539 -29.4226,-26.25578 -46.5848,-37.71551 -17.8413,-11.89007 -37.3018,-22.31233 -57.8285,-31.48253 -21.2435,-9.47019 -43.5854,-17.35372 -66.6417,-23.84545 -47.5034,-13.37366 -97.3158,-20.27198 -147.4342,-21.13452 -49.413,-0.68167 -98.2891,4.30721 -144.3814,16.34839 -10e-5,0 -10e-5,10e-6 -10e-5,10e-6 -21.9209,5.70731 -43.0239,12.78581 -62.8342,21.53175 -18.9672,8.39802 -36.7587,18.01739 -52.6873,29.11339 -10e-5,0 -10e-5,10e-6 -10e-5,2e-5 -15.3036,10.67407 -29.1626,22.43814 -40.7177,35.28302 0,1e-5 0,2e-5 0,3e-5 -11.3959,12.60701 -21.152,26.40793 -28.5375,40.87676 -7.7458,14.92943 -13.4096,31.43602 -16.9132,48.5188 -3.972,18.87836 -4.9954,39.42125 -3.892,60.62969 z"
         style="fill:#2a7fff;fill-opacity:1;stroke:#2a7fff;stroke-width:1.68762147;stroke-miterlimit:4;stroke-opacity:1;stroke-dashoffset:0"
         inkscape:original-d="m 1478.5016,706.18964 919.9072,0 0,26.93234 -919.9072,0 z"
         inkscape:connector-curvature="0" />
    </g>
  </g>
</svg>
