<?xml version="1.0" encoding="UTF-8" standalone="no"?>
<!-- Created with Inkscape (http://www.inkscape.org/) -->

<svg
   xmlns:dc="http://purl.org/dc/elements/1.1/"
   xmlns:cc="http://creativecommons.org/ns#"
   xmlns:rdf="http://www.w3.org/1999/02/22-rdf-syntax-ns#"
   xmlns:svg="http://www.w3.org/2000/svg"
   xmlns="http://www.w3.org/2000/svg"
   xmlns:sodipodi="http://sodipodi.sourceforge.net/DTD/sodipodi-0.dtd"
   xmlns:inkscape="http://www.inkscape.org/namespaces/inkscape"
   width="128"
   height="128"
   id="svg7906"
   version="1.1"
   inkscape:version="0.48.4 r9939"
   sodipodi:docname="tree.svg">
  <defs
     id="defs7908" />
  <sodipodi:namedview
     id="base"
     pagecolor="#ffffff"
     bordercolor="#666666"
     borderopacity="1.0"
     inkscape:pageopacity="0.0"
     inkscape:pageshadow="2"
     inkscape:zoom="1.979899"
     inkscape:cx="119.23397"
     inkscape:cy="64.188584"
     inkscape:document-units="px"
     inkscape:current-layer="layer1"
     showgrid="false"
     inkscape:window-width="1600"
     inkscape:window-height="845"
     inkscape:window-x="0"
     inkscape:window-y="0"
     inkscape:window-maximized="1" />
  <metadata
     id="metadata7911">
    <rdf:RDF>
      <cc:Work
         rdf:about="">
        <dc:format>image/svg+xml</dc:format>
        <dc:type
           rdf:resource="http://purl.org/dc/dcmitype/StillImage" />
        <dc:title></dc:title>
      </cc:Work>
    </rdf:RDF>
  </metadata>
  <g
     inkscape:label="Layer 1"
     inkscape:groupmode="layer"
     id="layer1"
     transform="translate(0,-924.36218)">
    <path
       style="fill:#311b0d;fill-opacity:1;stroke:#311b0d;stroke-width:0.47258972999999999px;stroke-linecap:butt;stroke-linejoin:miter;stroke-opacity:1"
       d="m 59.519312,1025.9363 32.037625,-8.9158 -5.08329,-7.5341 -28.615271,7.6219 z"
       id="path11394-2-5-2-2-1-3"
       inkscape:connector-curvature="0" />
    <path
       sodipodi:nodetypes="ccccc"
       style="fill:#311b0d;stroke:#311b0d;stroke-width:0.47258972999999999px;stroke-linecap:butt;stroke-linejoin:miter;stroke-opacity:1;fill-opacity:1"
       d="m 49.161592,1052.1264 17.542356,-0.014 1.401358,-71.37493 -20.25783,0.99963 z"
       id="path11302-2-6-4-2-2-8"
       inkscape:connector-curvature="0" />
    <path
       sodipodi:type="arc"
       style="fill:#006000;fill-opacity:1;stroke:#006000;stroke-width:5;stroke-miterlimit:4;stroke-opacity:1;stroke-dasharray:none;stroke-dashoffset:0"
       id="path11304-2-0-6-8-1-5-8-9-0"
       sodipodi:cx="1976.4286"
       sodipodi:cy="183.79076"
       sodipodi:rx="67.85714"
       sodipodi:ry="64.285713"
       d="m 2044.2857,183.79076 a 67.85714,64.285713 0 1 1 -135.7143,0 67.85714,64.285713 0 1 1 135.7143,0 z"
       transform="matrix(0.29910751,0.00522771,-0.01227617,0.30041301,-492.67361,945.81117)" />
    <path
       sodipodi:type="arc"
       style="fill:#006000;fill-opacity:1;stroke:#006000;stroke-width:5;stroke-miterlimit:4;stroke-opacity:1;stroke-dasharray:none;stroke-dashoffset:0"
       id="path11304-2-0-2-1-9-0-3-7-2-2"
       sodipodi:cx="1976.4286"
       sodipodi:cy="183.79076"
       sodipodi:rx="67.85714"
       sodipodi:ry="64.285713"
       d="m 2044.2857,183.79076 a 67.85714,64.285713 0 1 1 -135.7143,0 67.85714,64.285713 0 1 1 135.7143,0 z"
       transform="matrix(0.18425022,0.00322026,-0.00756212,0.18505441,-261.85445,957.30545)" />
    <path
       transform="matrix(0.12803278,0.00223771,-0.0052548,0.1285916,-164.48402,997.69475)"
       d="m 2044.2857,183.79076 a 67.85714,64.285713 0 1 1 -135.7143,0 67.85714,64.285713 0 1 1 135.7143,0 z"
       sodipodi:ry="64.285713"
       sodipodi:rx="67.85714"
       sodipodi:cy="183.79076"
       sodipodi:cx="1976.4286"
       id="path3868-2-3"
       style="fill:#006000;fill-opacity:1;stroke:#006000;stroke-width:5;stroke-miterlimit:4;stroke-opacity:1;stroke-dasharray:none;stroke-dashoffset:0"
       sodipodi:type="arc" />
    <g
       id="g3808"
       style="fill:#008800;fill-opacity:1;stroke:#008800;stroke-opacity:1">
      <path
         transform="matrix(0.42744674,0.00747078,-0.01754356,0.4293124,-783.83792,880.79196)"
         d="m 2044.2857,183.79076 a 67.85714,64.285713 0 1 1 -135.7143,0 67.85714,64.285713 0 1 1 135.7143,0 z"
         sodipodi:ry="64.285713"
         sodipodi:rx="67.85714"
         sodipodi:cy="183.79076"
         sodipodi:cx="1976.4286"
         id="path11304-2-2-6-7-1-4-5"
         style="fill:#008800;fill-opacity:1;stroke:#008800;stroke-width:5;stroke-miterlimit:4;stroke-opacity:1;stroke-dasharray:none;stroke-dashoffset:0"
         sodipodi:type="arc" />
      <path
         sodipodi:type="arc"
         style="fill:#008800;fill-opacity:1;stroke:#008800;stroke-width:5;stroke-miterlimit:4;stroke-opacity:1;stroke-dasharray:none;stroke-dashoffset:0"
         id="path11304-2-0-3-1-4-0-3-1-2"
         sodipodi:cx="1976.4286"
         sodipodi:cy="183.79076"
         sodipodi:rx="67.85714"
         sodipodi:ry="64.285713"
         d="m 2044.2857,183.79076 a 67.85714,64.285713 0 1 1 -135.7143,0 67.85714,64.285713 0 1 1 135.7143,0 z"
         transform="matrix(0.16510733,0.00288569,-0.00677644,0.16582797,-294.69922,925.873)" />
      <path
         sodipodi:type="arc"
         style="fill:#008800;fill-opacity:1;stroke:#008800;stroke-width:5;stroke-miterlimit:4;stroke-opacity:1;stroke-dasharray:none;stroke-dashoffset:0"
         id="path11304-5-9-9-0-1-2"
         sodipodi:cx="1976.4286"
         sodipodi:cy="183.79076"
         sodipodi:rx="67.85714"
         sodipodi:ry="64.285713"
         d="m 2044.2857,183.79076 a 67.85714,64.285713 0 1 1 -135.7143,0 67.85714,64.285713 0 1 1 135.7143,0 z"
         transform="matrix(0.29910751,0.00522771,-0.01227617,0.30041301,-542.33595,927.09782)" />
      <path
         transform="matrix(0.29910751,0.00522771,-0.01227617,0.30041301,-507.06849,902.26665)"
         d="m 2044.2857,183.79076 a 67.85714,64.285713 0 1 1 -135.7143,0 67.85714,64.285713 0 1 1 135.7143,0 z"
         sodipodi:ry="64.285713"
         sodipodi:rx="67.85714"
         sodipodi:cy="183.79076"
         sodipodi:cx="1976.4286"
         id="path3870-3-9"
         style="fill:#008800;fill-opacity:1;stroke:#008800;stroke-width:5;stroke-miterlimit:4;stroke-opacity:1;stroke-dasharray:none;stroke-dashoffset:0"
         sodipodi:type="arc" />
      <path
         transform="matrix(0.16510733,0.00288569,-0.00677644,0.16582797,-253.31394,914.71697)"
         d="m 2044.2857,183.79076 a 67.85714,64.285713 0 1 1 -135.7143,0 67.85714,64.285713 0 1 1 135.7143,0 z"
         sodipodi:ry="64.285713"
         sodipodi:rx="67.85714"
         sodipodi:cy="183.79076"
         sodipodi:cx="1976.4286"
         id="path3872-6-4"
         style="fill:#008800;fill-opacity:1;stroke:#008800;stroke-width:5;stroke-miterlimit:4;stroke-opacity:1;stroke-dasharray:none;stroke-dashoffset:0"
         sodipodi:type="arc" />
    </g>
    <path
       style="opacity:0.2;fill:#000000;stroke:#000000;stroke-width:1.00764167px;stroke-linecap:butt;stroke-linejoin:miter;stroke-opacity:1"
       d="m 100.55323,958.4553 c -5.462352,8.60692 -13.989137,10.06348 -23.751553,8.63693 -4.612732,9.23438 -11.941804,12.357 -22.312069,8.63693 -9.333503,4.9598 -17.982555,2.73297 -26.360632,-2.33917 -0.07658,3.27514 -0.385988,5.219 0.989655,8.81686 -13.448923,20.74575 17.613406,45.16085 35.087525,20.15285 9.492146,-3.5715 17.100224,-8.02222 19.433085,-14.93471 18.745779,-3.69848 21.672259,-21.39241 16.913989,-28.96969 z"
       id="path3874-3-0"
       inkscape:connector-curvature="0"
       sodipodi:nodetypes="cccccccc" />
    <path
       style="fill:#311b0d;fill-opacity:1;stroke:#311b0d;stroke-width:0.47258972999999999px;stroke-linecap:butt;stroke-linejoin:miter;stroke-opacity:1"
       d="m 21.775941,1015.5658 32.037625,8.9158 -5.08329,7.5341 -28.615271,-7.6219 z"
       id="path11394-2-5-2-2-1-3-7"
       inkscape:connector-curvature="0" />
    <path
       sodipodi:type="arc"
       style="fill:#006000;fill-opacity:1;stroke:#006000;stroke-width:5;stroke-miterlimit:4;stroke-opacity:1;stroke-dasharray:none;stroke-dashoffset:0"
       id="path11304-2-0-2-1-9-0-3-7-2-2-7"
       sodipodi:cx="1976.4286"
       sodipodi:cy="183.79076"
       sodipodi:rx="67.85714"
       sodipodi:ry="64.285713"
       d="m 2044.2857,183.79076 a 67.85714,64.285713 0 1 1 -135.7143,0 67.85714,64.285713 0 1 1 135.7143,0 z"
       transform="matrix(0.18425022,0.00322026,-0.00756212,0.18505441,-342.76756,978.23627)" />
  </g>
</svg>
